<?xml version="1.0" encoding="utf-8"?>
<!-- Generator: Adobe Illustrator 27.6.1, SVG Export Plug-In . SVG Version: 6.00 Build 0)  -->
<svg version="1.1" id="Capa_1" xmlns="http://www.w3.org/2000/svg" xmlns:xlink="http://www.w3.org/1999/xlink" x="0px" y="0px"
	 viewBox="0 0 512 512" style="enable-background:new 0 0 512 512;" xml:space="preserve">
<style type="text/css">
	.st0{fill:#333333;}
</style>
<path class="st0" d="M284.2,219.9h-42.6c-3.2,0-5.8,2.6-5.8,5.8s2.6,5.8,5.8,5.8h42.6c3.2,0,5.8-2.6,5.8-5.8
	S287.4,219.9,284.2,219.9z"/>
<path class="st0" d="M284.2,260.8h-42.6c-3.2,0-5.8,2.6-5.8,5.8c0,3.2,2.6,5.8,5.8,5.8h42.6c3.2,0,5.8-2.6,5.8-5.8
	C290,263.4,287.4,260.8,284.2,260.8z"/>
<path class="st0" d="M360.1,290.9l1.8-3.4c13.9-25.6,21.3-54.5,21.4-83.6c0.1-47.4-18.3-92-52-125.6C297.7,44.7,252.9,26.1,205.2,26
	c-98.7,0-178.8,79.4-179.1,177c-0.1,43.4,15.7,85.2,44.6,117.7l1.3,1.5v86.9H32.4c-5.2,0-9.5,4.2-9.5,9.5v18.1
	c0,26.1,21.2,47.4,47.4,47.4h151.4c26.1,0,47.4-21.2,47.4-47.4V369l3.2-1.3c5.5-2.2,10.8-4.7,16-7.4l3.4-1.8l114.6,114.6
	c7,7,16.6,10.8,27.2,10.8c13,0,26.1-5.7,36-15.6c8.8-8.9,14.3-20.1,15.4-31.7c1.2-12.1-2.7-23.6-10.7-31.5L360.1,290.9z M45,203
	c0.1-42.3,16.9-82.1,47.2-112c30.2-29.8,70.1-46.1,112.4-46.1c0.2,0,0.4,0,0.6,0C247.8,45,287.9,61.6,318,91.6
	c30.1,30,46.5,69.9,46.4,112.2c-0.1,30.2-8.9,59.7-25.5,85.3l-9.5,14.6V158.8c0-5.2-4.2-9.5-9.5-9.5H109.4c-5.2,0-9.5,4.2-9.5,9.5
	v164.9l-8.8-8.9C61.3,284.9,44.9,245.2,45,203z M70.3,465.1c-15.7,0-28.5-12.8-28.5-28.5V428h132.5v8.7c0,7.4,1.7,14.4,4.9,21
	l3.7,7.5H70.3z M250.1,436.7c0,15.7-12.8,28.5-28.5,28.5c-15.7,0-28.5-12.8-28.5-28.5v-18.1c0-5.2-4.2-9.5-9.5-9.5H90.9v-68.5
	l11.8,8.6c0.9,1,2,1.7,3.2,2.2l0.9,0.5c28.9,18.9,62.6,29,97.5,29.1c13.5,0,26.7-1.5,39.6-4.4l6.3-1.4V436.7z M204.7,362
	c-29.7-0.1-58.3-8.2-83.3-23.4l-2.5-1.5V168.3h191.6V322l-1.8,1.5C279.6,348.3,242.7,362,204.7,362z M456.1,454.9
	c-6.7,6.7-15,10.2-22.6,10.2c-5.3,0-10.3-1.8-13.9-5.4L308.1,348.1l4.7-3.6c12.4-9.4,23.6-20.5,33.2-32.8l3.6-4.6l111.3,111.3
	C469.6,427.2,467.5,443.5,456.1,454.9z"/>
<path class="st0" d="M198.6,196.5h-46.8c-3.2,0-5.8,2.6-5.8,5.8v70.2c0,3.2,2.6,5.8,5.8,5.8h46.8c3.2,0,5.8-2.6,5.8-5.8v-70.2
	C204.4,199.1,201.8,196.5,198.6,196.5z M192.8,266.7h-35.2v-58.6h35.2V266.7z"/>
</svg>
