<?xml version="1.0" encoding="utf-8"?>
<!-- Generator: Adobe Illustrator 27.6.1, SVG Export Plug-In . SVG Version: 6.00 Build 0)  -->
<svg version="1.1" id="레이어_1" xmlns="http://www.w3.org/2000/svg" xmlns:xlink="http://www.w3.org/1999/xlink" x="0px"
	 y="0px" viewBox="0 0 150 150" style="enable-background:new 0 0 150 150;" xml:space="preserve">
<style type="text/css">
	.st0{fill:#FFFFFF;}
</style>
<path class="st0" d="M134.1,55.5L86.4,7.8c-6.3-6.3-16.6-6.3-22.9,0L15.9,55.5c-2,2-3.1,4.7-3.1,7.5s1.1,5.5,3.1,7.5
	c2,2,4.7,3.1,7.5,3.1s5.5-1.1,7.5-3.1l33.4-33.4v99c0,5.9,4.8,10.7,10.7,10.7s10.7-4.8,10.7-10.7v-99L119,70.6c2,2,4.7,3.1,7.5,3.1
	s5.5-1.1,7.5-3.1c2-2,3.1-4.7,3.1-7.5S136.1,57.5,134.1,55.5z"/>
</svg>
