<?xml version="1.0" encoding="utf-8"?>
<!-- Generator: Adobe Illustrator 27.6.1, SVG Export Plug-In . SVG Version: 6.00 Build 0)  -->
<svg version="1.1" id="Capa_1" xmlns="http://www.w3.org/2000/svg" xmlns:xlink="http://www.w3.org/1999/xlink" x="0px" y="0px"
	 viewBox="0 0 512 512" style="enable-background:new 0 0 512 512;" xml:space="preserve">
<style type="text/css">
	.st0{fill:#333333;}
</style>
<g>
	<g>
		<path class="st0" d="M269.7,490.7H77.8c-37.4,0-67.8-30.4-67.8-67.8s30.4-67.8,67.8-67.8h191.9c37.4,0,67.8,30.4,67.8,67.8
			S307.1,490.7,269.7,490.7z M77.8,373.2c-27.4,0-49.6,22.3-49.6,49.6c0,27.4,22.3,49.6,49.6,49.6h191.9c27.4,0,49.6-22.3,49.6-49.6
			c0-27.4-22.3-49.6-49.6-49.6H77.8z"/>
	</g>
	<g>
		<path class="st0" d="M57.3,377.2c-5,0-9.1-4.1-9.1-9.1v-62.7c0-5,4.1-9.1,9.1-9.1h233c5,0,9.1,4.1,9.1,9.1v58.7
			c0,5-4.1,9.1-9.1,9.1s-9.1-4.1-9.1-9.1v-49.6H66.4v53.6C66.4,373.1,62.3,377.2,57.3,377.2z"/>
	</g>
	<g>
		<path class="st0" d="M100.3,432H71c-5,0-9.1-4.1-9.1-9.1s4.1-9.1,9.1-9.1h29.4c5,0,9.1,4.1,9.1,9.1S105.4,432,100.3,432z"/>
	</g>
	<g>
		<path class="st0" d="M159.1,432h-29.4c-5,0-9.1-4.1-9.1-9.1s4.1-9.1,9.1-9.1h29.4c5,0,9.1,4.1,9.1,9.1S164.1,432,159.1,432z"/>
	</g>
	<g>
		<path class="st0" d="M217.8,432h-29.4c-5,0-9.1-4.1-9.1-9.1s4.1-9.1,9.1-9.1h29.4c5,0,9.1,4.1,9.1,9.1S222.8,432,217.8,432z"/>
	</g>
	<g>
		<path class="st0" d="M276.5,432h-29.4c-5,0-9.1-4.1-9.1-9.1s4.1-9.1,9.1-9.1h29.4c5,0,9.1,4.1,9.1,9.1S281.6,432,276.5,432z"/>
	</g>
	<g>
		<path class="st0" d="M409.7,96.2c-21.2,0-38.5-17.3-38.5-38.5s17.3-38.5,38.5-38.5s38.5,17.2,38.5,38.5S430.9,96.2,409.7,96.2z
			 M409.7,37.5c-11.2,0-20.3,9.1-20.3,20.3S398.5,78,409.7,78c11.2,0,20.3-9.1,20.3-20.3S420.8,37.5,409.7,37.5z"/>
	</g>
	<g>
		<path class="st0" d="M437.6,444.2c-34.4,0-62.4-28-62.4-62.4s28-62.4,62.4-62.4s62.4,28,62.4,62.4S472,444.2,437.6,444.2z
			 M437.6,337.5c-24.4,0-44.3,19.9-44.3,44.3c0,24.4,19.9,44.3,44.3,44.3c24.4,0,44.3-19.9,44.3-44.3
			C481.8,357.4,462,337.5,437.6,337.5z"/>
	</g>
	<g>
		<path class="st0" d="M260.9,314.5c-5,0-9.1-4.1-9.1-9.1v-81.9l-75.5-93H66.4v174.9c0,5-4.1,9.1-9.1,9.1s-9.1-4.1-9.1-9.1v-184
			c0-5,4.1-9.1,9.1-9.1h123.3c2.7,0,5.3,1.2,7.1,3.4l80.3,98.9c1.3,1.6,2,3.6,2,5.7v85.2C270,310.4,265.9,314.5,260.9,314.5z"/>
	</g>
	<g>
		<path class="st0" d="M259.9,255.8H142.4c-5,0-9.1-4.1-9.1-9.1V126.2c0-5,4.1-9.1,9.1-9.1c5,0,9.1,4.1,9.1,9.1v111.4h108.4
			c5,0,9.1,4.1,9.1,9.1C269,251.7,264.9,255.8,259.9,255.8z"/>
	</g>
	<g>
		<path class="st0" d="M207,157.9c-3.3,0-6.4-1.8-8.1-4.9c-2.3-4.4-0.6-9.9,3.8-12.3l173.3-91c4.4-2.3,9.9-0.6,12.3,3.8
			c2.3,4.4,0.6,9.9-3.8,12.3l-173.3,91C209.9,157.5,208.5,157.9,207,157.9z"/>
	</g>
	<g>
		<path class="st0" d="M260.9,229.3c-2.3,0-4.7-0.9-6.4-2.7c-3.5-3.6-3.5-9.3,0-12.8L389.6,79.7c3.6-3.5,9.3-3.5,12.8,0
			c3.5,3.6,3.5,9.3,0,12.8L267.3,226.7C265.5,228.5,263.2,229.3,260.9,229.3z"/>
	</g>
	<g>
		<path class="st0" d="M437.5,337.5c-4.5,0-8.5-3.4-9-8L400.6,88.2c-0.6-5,3-9.5,8-10.1c4.9-0.6,9.5,3,10.1,8l27.9,241.3
			c0.6,5-3,9.5-8,10.1C438.3,337.5,437.9,337.5,437.5,337.5z"/>
	</g>
</g>
</svg>
