<?xml version="1.0" encoding="utf-8"?>
<!-- Generator: Adobe Illustrator 27.6.1, SVG Export Plug-In . SVG Version: 6.00 Build 0)  -->
<svg version="1.1" id="레이어_1" xmlns="http://www.w3.org/2000/svg" xmlns:xlink="http://www.w3.org/1999/xlink" x="0px"
	 y="0px" viewBox="0 0 200 138.9" style="enable-background:new 0 0 200 138.9;" xml:space="preserve">
<style type="text/css">
	.st0{fill:#FF0000;}
	.st1{fill-rule:evenodd;clip-rule:evenodd;fill:#FFFFFF;}
</style>
<g>
	<path class="st0" d="M166.1,131.5c0,0-49.5,1.4-66.1,1.4s-66.1-1.4-66.1-1.4c-12.8,0-23.3-10.5-23.3-23.3c0,0-1.4-29.1-1.4-38.8
		c0-9.7,1.4-38.8,1.4-38.8c0-12.8,10.5-23.3,23.3-23.3c0,0,49.5-1.4,66.1-1.4s66.1,1.4,66.1,1.4c12.8,0,23.3,10.5,23.3,23.3
		c0,0,1.4,29.1,1.4,38.8c0,9.7-1.4,38.8-1.4,38.8C189.3,121.1,178.8,131.5,166.1,131.5z"/>
	<polygon class="st1" points="82.6,97.8 82.6,41.1 128.5,69.4 	"/>
</g>
</svg>
