<?xml version="1.0" encoding="utf-8"?>
<!-- Generator: Adobe Illustrator 27.6.1, SVG Export Plug-In . SVG Version: 6.00 Build 0)  -->
<svg version="1.1" id="레이어_1" xmlns="http://www.w3.org/2000/svg" xmlns:xlink="http://www.w3.org/1999/xlink" x="0px"
	 y="0px" viewBox="0 0 83 83" style="enable-background:new 0 0 83 83;" xml:space="preserve">
<style type="text/css">
	.st0{fill:#FFFFFF;}
</style>
<path class="st0" d="M49,43L49,43c-1,0-1.8,0.6-2.1,1.5L44,44l-0.3-0.6l3.1-2.9c0.4-0.4,0.7-1,0.7-1.7V26.2c0-0.6-0.5-1.2-1.2-1.2
	H35.8c-0.6,0-1.2,0.5-1.2,1.2v12.7c0,0.6,0.3,1.2,0.7,1.7l3.2,2.9L38.1,44l-3,0.4c-0.4-1-1.5-1.7-2.5-1.4c-1.1,0.3-1.9,1.3-1.8,2.4
	c0.1,1.1,1.1,2,2.2,2l0,0c0.3,0,0.6-0.1,1-0.2l2.3,2.3l-0.5,3c-0.1,0-0.1,0-0.1,0c-1.2,0-2.2,1-2.2,2.2c0,1.2,1,2.2,2.2,2.2
	s2.2-1,2.2-2.2c0-0.1,0-0.1,0-0.2l3.1-1.6l3,1.6c0,0.1,0,0.2,0,0.3c0,1.2,1,2.2,2.2,2.2c1.2,0,2.2-1,2.2-2.2c0-1.2-1-2.2-2.2-2.2
	h-0.1l-0.5-3l2.3-2.2c0.3,0.1,0.6,0.2,1,0.2c1.2,0,2.2-1,2.2-2.2C51.2,44,50.3,43,49,43z M34.1,45.2c0,0.5-0.4,1-1,1
	c-0.5,0-1-0.4-1-1c0-0.5,0.4-1,1-1C33.7,44.2,34.1,44.7,34.1,45.2z M35.9,38.8V26.3h1.3v14.2l-1-1C36.1,39.3,35.9,39.1,35.9,38.8z
	 M44.9,40.5V26.3h1.3v12.6c0,0.3-0.1,0.5-0.3,0.7L44.9,40.5z M45.5,54.7c0-0.5,0.4-1,1-1c0.5,0,1,0.4,1,1c0,0.5-0.4,1-1,1
	C45.9,55.7,45.5,55.2,45.5,54.7z M37.8,49.4c0.1-0.2,0-0.4-0.2-0.6L35,46.3c0.1-0.2,0.2-0.4,0.3-0.6l3.4-0.5c0.2,0,0.4-0.2,0.5-0.4
	l1.7-3.2c0.2,0,0.4,0,0.5,0l1.6,3.3c0.1,0.2,0.3,0.3,0.5,0.4l3.4,0.5c0.1,0.3,0.1,0.4,0.3,0.6l-2.5,2.3c-0.1,0.1-0.2,0.4-0.2,0.6
	l0.6,3.6c-0.1,0.1-0.3,0.2-0.4,0.4l-3.2-1.7c-0.2-0.1-0.4-0.1-0.6,0l-3.3,1.7c-0.1-0.1-0.2-0.3-0.4-0.3L37.8,49.4z M41.1,38.5
	c0.5,0,1,0.4,1,1c0,0.5-0.4,1-1,1c-0.5,0-1-0.4-1-1C40.1,38.8,40.6,38.5,41.1,38.5z M43.6,41.7l-0.5,0.4l-0.5-1.1
	c0.7-0.6,1-1.6,0.6-2.4c-0.3-0.9-1.2-1.5-2.2-1.5l0,0c-1,0-1.8,0.6-2.1,1.5s0,1.8,0.7,2.4l-0.6,1.1l-0.5-0.5V26.3h5.1L43.6,41.7
	L43.6,41.7z M36.8,54.7c0,0.5-0.4,1-1,1c-0.5,0-1-0.4-1-1c0-0.5,0.4-1,1-1C36.3,53.8,36.8,54.2,36.8,54.7z M50,45.2c0,0.5-0.4,1-1,1
	c-0.5,0-1-0.4-1-1c0-0.5,0.4-1,1-1C49.5,44.2,50,44.7,50,45.2z"/>
</svg>
