<?xml version="1.0" encoding="utf-8"?>
<!-- Generator: Adobe Illustrator 27.6.1, SVG Export Plug-In . SVG Version: 6.00 Build 0)  -->
<svg version="1.1" id="레이어_1" xmlns="http://www.w3.org/2000/svg" xmlns:xlink="http://www.w3.org/1999/xlink" x="0px"
	 y="0px" viewBox="0 0 83 83" style="enable-background:new 0 0 83 83;" xml:space="preserve">
<style type="text/css">
	.st0{fill:#0078C0;}
</style>
<g>
	<path class="st0" d="M56.9,52.5l-2-2c0,0,0-0.1,0-0.1c0-0.1-0.1-0.1-0.1-0.1v-8.7c0-1-0.8-1.8-1.9-1.8h-4.6V29.3
		c0-1-0.8-1.8-1.9-1.8H30c-1,0-1.9,0.8-1.9,1.8v8.7c0,0.1,0,0.2-0.1,0.2l-2,2c-0.5,0.6-0.7,1.4-0.4,2c0.3,0.7,1,1.2,1.7,1.2h7.2
		v10.4c0,1,0.8,1.8,1.9,1.8h19.1c0.7,0,1.4-0.4,1.8-1.2C57.6,53.8,57.4,53,56.9,52.5z M46.7,41.5c0,0.2-0.1,0.3-0.3,0.3H35.4h-8.1
		c-0.1,0-0.2-0.1-0.2-0.1c0,0,0-0.1-0.1-0.1c0,0,0,0,0-0.1c0-0.1,0-0.1,0.1-0.2l2-2c0.3-0.3,0.5-0.8,0.5-1.3v-8.7
		c0-0.2,0.1-0.3,0.3-0.3h16.5c0.2,0,0.3,0.1,0.3,0.3V41.5z M36.1,51.6h10.8c0.4,0,0.8-0.4,0.8-0.8S47.3,50,46.9,50H36.1v-6.5h10.3
		c0.9,0,1.6-0.6,1.8-1.4c0.1-0.2,0.1-0.4,0.1-0.6v-0.1h4.5c0.2,0,0.3,0.1,0.3,0.3v8.7c0,0.5,0.2,0.9,0.5,1.3l2,2
		c0.1,0.1,0.1,0.2,0.1,0.3l0,0v0c0,0-0.1,0.1-0.2,0.1H36.4c-0.2,0-0.3-0.1-0.3-0.3V51.6z"/>
	<path class="st0" d="M38,30.2c-1.8,0-3.2,1.4-3.2,3.2c0,0.4,0.4,0.8,0.8,0.8s0.8-0.4,0.8-0.8c0-0.9,0.7-1.6,1.7-1.6
		c1,0,1.7,0.7,1.7,1.6S39,35,38,35c-0.4,0-0.8,0.4-0.8,0.8v2c0,0.4,0.4,0.8,0.8,0.8c0.2,0,0.4-0.1,0.5-0.3c0.1-0.2,0.2-0.4,0.2-0.5
		v-1.3c1.5-0.4,2.5-1.6,2.5-3.1C41.2,31.7,39.7,30.2,38,30.2z"/>
	<path class="st0" d="M38,39c-0.4,0-0.8,0.4-0.8,0.8v0.1c0,0.4,0.4,0.8,0.8,0.8c0.4,0,0.7-0.4,0.8-0.8v-0.1C38.8,39.4,38.4,39,38,39
		z"/>
	<rect x="39.9" y="45.9" class="st0" width="2.3" height="2.3"/>
	<rect x="43.4" y="45.9" class="st0" width="2.3" height="2.3"/>
	<rect x="46.8" y="45.9" class="st0" width="2.3" height="2.3"/>
</g>
</svg>
