<?xml version="1.0" encoding="utf-8"?>
<!-- Generator: Adobe Illustrator 27.6.1, SVG Export Plug-In . SVG Version: 6.00 Build 0)  -->
<svg version="1.1" id="레이어_1" xmlns="http://www.w3.org/2000/svg" xmlns:xlink="http://www.w3.org/1999/xlink" x="0px"
	 y="0px" viewBox="0 0 83 83" style="enable-background:new 0 0 83 83;" xml:space="preserve">
<style type="text/css">
	.st0{fill:#FFFFFF;}
</style>
<path class="st0" d="M57.5,30.2l-1.1-1.1l-2.2,2.2c-0.2,0.2-0.2,0.3-0.2,0.5c0,1-0.2,2-0.7,2.8c-0.5-0.7-1.1-1.2-1.8-1.7v-0.9h-1
	c-0.4,0-0.8-0.1-1.1-0.1c-0.2-0.1-0.4-0.1-0.6-0.2c-0.4-0.2-0.9-0.4-1.2-0.6c-0.4-0.2-0.8-0.1-1.1,0.2c-0.5,0.8-1.4,1.4-2.3,1.6
	c-0.1,0-0.2,0.1-0.3,0.1l1.9-2.4c0.8-1,2-1.6,3.2-1.6c0.3,0,0.7,0.1,1,0.1l1.3,0.3c0.5,0.3,0.9,0.7,1.1,1.1l0.1,0.2l1.4-0.7L54,30
	c-0.3-0.6-0.7-1.1-1.3-1.5l0.9-2.7l-1.4-0.5l-0.9,2.6l-0.7-0.2c-0.5-0.1-0.9-0.2-1.4-0.2c-1.8,0-3.4,0.8-4.5,2.2l-1.9,2.4
	c-0.2,0.3-0.3,0.5-0.3,0.9c0,0,0,0-0.1,0l-1.2,0.9L40.2,33c-1.4-0.9-2.9-1.4-4.6-1.4c-2.6,0-5,1.3-6.4,3.3c-1,1.4-1.5,3-1.5,4.8
	c0,2.4,0.7,4.9,1.9,7l-0.3,0.2c-0.7,0.6-1.1,1.6-1.1,2.5c0,0.3,0,0.6,0.1,0.8l0.3,1.2c-0.5,0.4-1.1,0.7-1.7,0.8l-1.4,0.3l0.3,1.5
	l1.4-0.3c1.1-0.2,2-0.7,2.8-1.5c0.2-0.2,0.3-0.5,0.2-0.7l-0.4-1.7c0-0.2-0.1-0.3-0.1-0.5c0-0.5,0.2-1,0.6-1.4l2.8-2.5
	c0,0.1,0,0.2-0.1,0.2c-0.2,0.7-0.6,1.3-1.2,1.9l-0.6,0.6c-0.2,0.2-0.3,0.6-0.2,0.9c0.3,0.6,0.4,1.2,0.4,1.8V52h1.5v-1.1
	c0-0.1,0-0.1,0-0.1c0.6,0.5,1.3,0.9,2,1.2l0.8,0.4l-0.6,0.5c-0.8,0.7-1.9,1.1-3,1.1h-1.5c-0.2,0-0.4,0.1-0.5,0.2l-2.2,2.2l1.1,1.1
	l2-2h1.2c1.5,0,2.9-0.5,4-1.5l1-0.9l3.6,1.8c0.2,0.1,0.5,0.1,0.7,0l5.9-2.9c1.5-0.7,2.7-1.7,3.9-2.9c2.3-2.6,3.6-5.9,3.6-9.4
	c0-1.2-0.3-2.4-0.8-3.5c0.8-1.2,1.2-2.6,1.3-4L57.5,30.2z M34.5,46.3c0.1-0.3,0.1-0.5,0.1-0.8c0-0.8-0.7-1.5-1.5-1.5
	c-0.4,0-0.7,0.1-1,0.4l-1.5,1.3c-1-1.8-1.5-3.9-1.5-6c0-1.4,0.4-2.7,1.2-3.9c1.2-1.7,3.1-2.7,5.2-2.7c1.3,0,2.6,0.4,3.7,1.2l1.3,0.9
	v1.8h-1c-1.9,0-3.5,1.6-3.5,3.5c0,1.9,1.6,3.5,3.5,3.5h1v1.2c0,0.4,0.3,0.8,0.8,0.8h1.5c1.1,0,2,0.9,2,2c0,1.1-0.9,2-2,2h-1.5
	c-0.4,0-0.8,0.3-0.8,0.8v2.3l-4.8-2.4c-1-0.5-1.9-1.1-2.7-1.9C33.7,48,34.2,47.2,34.5,46.3z M42.1,51.5h0.7c1.9,0,3.5-1.6,3.5-3.5
	s-1.6-3.5-3.5-3.5h-0.7v-1.2c0-0.2-0.1-0.4-0.2-0.5c-0.2-0.2-0.3-0.2-0.5-0.2h-1.7c-1.1,0-2-0.9-2-2c0-1.1,0.9-2,2-2h1.7
	c0.4,0,0.8-0.3,0.8-0.8v-2.6l1.2-0.9c0.4,0.3,1,0.3,1.5,0.2c0.9-0.2,1.8-0.7,2.5-1.4c0.5,0,0.9,0.1,1.4,0.2l0.1,0
	c0.1,0,0.2,0.1,0.2,0.1c1.4,0.4,2.5,1.3,3.3,2.4c0.8,1.2,1.2,2.5,1.2,3.9c0,3.1-1.1,6-3.2,8.3c-1,1.1-2.1,1.9-3.4,2.6L42.1,53
	C42.1,53,42.1,51.5,42.1,51.5z"/>
</svg>
