<?xml version="1.0" encoding="utf-8"?>
<!-- Generator: Adobe Illustrator 27.6.1, SVG Export Plug-In . SVG Version: 6.00 Build 0)  -->
<svg version="1.1" id="레이어_1" xmlns="http://www.w3.org/2000/svg" xmlns:xlink="http://www.w3.org/1999/xlink" x="0px"
	 y="0px" viewBox="0 0 83 83" style="enable-background:new 0 0 83 83;" xml:space="preserve">
<style type="text/css">
	.st0{fill:#0078C0;}
</style>
<g>
	<g>
		<g>
			<path class="st0" d="M54.4,27.8h-18c-0.1-1.6-1.5-2.9-3.2-2.9h-1.4c-1.7,0-3.1,1.3-3.2,2.9c-1.7,0.1-3,1.5-3,3.2V55
				c0,1.7,1.4,3.2,3.2,3.2h25.7c1.7,0,3.2-1.4,3.2-3.2V30.9C57.6,29.2,56.1,27.8,54.4,27.8z M56.1,55c0,0.9-0.7,1.7-1.7,1.7H28.7
				c-0.9,0-1.7-0.7-1.7-1.7V30.9c0-0.9,0.7-1.6,1.5-1.7v22.9c0,1.8,1.4,3.2,3.2,3.2h1.4c1.8,0,3.2-1.4,3.2-3.2V35.1
				c0-0.4-0.3-0.7-0.7-0.7s-0.7,0.3-0.7,0.7v17.1c0,0.9-0.8,1.7-1.7,1.7h-1.4c-0.9,0-1.7-0.8-1.7-1.7V28c0-0.9,0.8-1.7,1.7-1.7h1.4
				c0.9,0,1.7,0.8,1.7,1.7v2.8c0,0.4,0.3,0.7,0.7,0.7c0.4,0,0.7-0.3,0.7-0.7v-1.5h18c0.9,0,1.7,0.7,1.7,1.7L56.1,55L56.1,55z"/>
		</g>
	</g>
	<g>
		<g>
			<path class="st0" d="M53.7,31.8H38.8c-0.4,0-0.7,0.3-0.7,0.7v4.3c0,0.4,0.3,0.7,0.7,0.7h14.9c0.4,0,0.7-0.3,0.7-0.7v-4.3
				C54.4,32.1,54.1,31.8,53.7,31.8z M53,36.1H39.6v-2.8h13.4L53,36.1L53,36.1z"/>
		</g>
	</g>
	<g>
		<g>
			<path class="st0" d="M35.7,32c-0.4,0-0.7,0.3-0.7,0.7v0.2c0,0.4,0.3,0.7,0.7,0.7s0.7-0.3,0.7-0.7v-0.2C36.4,32.3,36.1,32,35.7,32
				z"/>
		</g>
	</g>
	<g>
		<g>
			<path class="st0" d="M40.4,38.9c-1.3,0-2.3,1-2.3,2.3c0,1.3,1,2.3,2.3,2.3c1.3,0,2.3-1,2.3-2.3C42.7,40,41.7,38.9,40.4,38.9z
				 M40.4,42.1c-0.5,0-0.8-0.4-0.8-0.8s0.4-0.8,0.8-0.8s0.8,0.4,0.8,0.8C41.2,41.8,40.9,42.1,40.4,42.1z"/>
		</g>
	</g>
	<g>
		<g>
			<path class="st0" d="M46.3,38.9c-1.3,0-2.3,1-2.3,2.3c0,1.3,1,2.3,2.3,2.3c1.3,0,2.3-1,2.3-2.3C48.6,40,47.5,38.9,46.3,38.9z
				 M46.3,42.1c-0.5,0-0.8-0.4-0.8-0.8s0.4-0.8,0.8-0.8s0.8,0.4,0.8,0.8C47.1,41.8,46.7,42.1,46.3,42.1z"/>
		</g>
	</g>
	<g>
		<g>
			<path class="st0" d="M52.1,38.9c-1.3,0-2.3,1-2.3,2.3c0,1.3,1,2.3,2.3,2.3c1.3,0,2.3-1,2.3-2.3C54.4,40,53.4,38.9,52.1,38.9z
				 M52.1,42.1c-0.5,0-0.8-0.4-0.8-0.8s0.4-0.8,0.8-0.8c0.5,0,0.8,0.4,0.8,0.8S52.6,42.1,52.1,42.1z"/>
		</g>
	</g>
	<g>
		<g>
			<path class="st0" d="M40.4,44.5c-1.3,0-2.3,1-2.3,2.3c0,1.3,1,2.3,2.3,2.3c1.3,0,2.3-1,2.3-2.3C42.7,45.6,41.7,44.5,40.4,44.5z
				 M40.4,47.7c-0.5,0-0.8-0.4-0.8-0.8s0.4-0.8,0.8-0.8s0.8,0.4,0.8,0.8C41.2,47.3,40.9,47.7,40.4,47.7z"/>
		</g>
	</g>
	<g>
		<g>
			<path class="st0" d="M46.3,44.5c-1.3,0-2.3,1-2.3,2.3c0,1.3,1,2.3,2.3,2.3c1.3,0,2.3-1,2.3-2.3C48.6,45.6,47.5,44.5,46.3,44.5z
				 M46.3,47.7c-0.5,0-0.8-0.4-0.8-0.8s0.4-0.8,0.8-0.8s0.8,0.4,0.8,0.8C47.1,47.3,46.7,47.7,46.3,47.7z"/>
		</g>
	</g>
	<g>
		<g>
			<path class="st0" d="M52.1,44.5c-1.3,0-2.3,1-2.3,2.3c0,1.3,1,2.3,2.3,2.3c1.3,0,2.3-1,2.3-2.3C54.4,45.6,53.4,44.5,52.1,44.5z
				 M52.1,47.7c-0.5,0-0.8-0.4-0.8-0.8s0.4-0.8,0.8-0.8c0.5,0,0.8,0.4,0.8,0.8S52.6,47.7,52.1,47.7z"/>
		</g>
	</g>
	<g>
		<g>
			<path class="st0" d="M40.4,50.1c-1.3,0-2.3,1-2.3,2.3c0,1.3,1,2.3,2.3,2.3c1.3,0,2.3-1,2.3-2.3C42.7,51.1,41.7,50.1,40.4,50.1z
				 M40.4,53.3c-0.5,0-0.8-0.4-0.8-0.8s0.4-0.8,0.8-0.8s0.8,0.4,0.8,0.8C41.2,52.9,40.9,53.3,40.4,53.3z"/>
		</g>
	</g>
	<g>
		<g>
			<path class="st0" d="M46.3,50.1c-1.3,0-2.3,1-2.3,2.3c0,1.3,1,2.3,2.3,2.3c1.3,0,2.3-1,2.3-2.3C48.6,51.1,47.5,50.1,46.3,50.1z
				 M46.3,53.3c-0.5,0-0.8-0.4-0.8-0.8s0.4-0.8,0.8-0.8s0.8,0.4,0.8,0.8S46.7,53.3,46.3,53.3z"/>
		</g>
	</g>
	<g>
		<g>
			<path class="st0" d="M52.1,50.1c-1.3,0-2.3,1-2.3,2.3c0,1.3,1,2.3,2.3,2.3c1.3,0,2.3-1,2.3-2.3C54.4,51.1,53.4,50.1,52.1,50.1z
				 M52.1,53.3c-0.5,0-0.8-0.4-0.8-0.8s0.4-0.8,0.8-0.8c0.5,0,0.8,0.4,0.8,0.8S52.6,53.3,52.1,53.3z"/>
		</g>
	</g>
</g>
</svg>
