<?xml version="1.0" encoding="utf-8"?>
<!-- Generator: Adobe Illustrator 27.6.1, SVG Export Plug-In . SVG Version: 6.00 Build 0)  -->
<svg version="1.1" id="레이어_1" xmlns="http://www.w3.org/2000/svg" xmlns:xlink="http://www.w3.org/1999/xlink" x="0px"
	 y="0px" viewBox="0 0 83 83" style="enable-background:new 0 0 83 83;" xml:space="preserve">
<style type="text/css">
	.st0{fill:#FFFFFF;}
</style>
<g>
	<path class="st0" d="M32.9,34.2h1.2c1.1,0,1.1-1.7,0-1.7h-1.2C31.8,32.5,31.8,34.2,32.9,34.2z"/>
	<path class="st0" d="M40.9,34.2h1.2c1.1,0,1.1-1.7,0-1.7h-1.2C39.8,32.5,39.8,34.2,40.9,34.2z"/>
	<path class="st0" d="M48.8,34.2h1.2c1.1,0,1.1-1.7,0-1.7h-1.2C47.7,32.5,47.7,34.2,48.8,34.2z"/>
	<path class="st0" d="M34.2,38c-0.7,0-2.1-0.3-2.2,0.8c0,1.1,1.4,0.8,2.1,0.9C35.3,39.7,35.3,38.1,34.2,38z"/>
	<path class="st0" d="M42.2,38C42.1,38,42.1,38,42.2,38h-1.3c-1.1,0-1.2,1.6,0,1.7c0,0,0,0,0,0h1.2C43.2,39.7,43.3,38.1,42.2,38z"/>
	<path class="st0" d="M50.1,38C50.1,38,50.1,38,50.1,38h-1.3c-1.1,0-1.2,1.6,0,1.7c0,0,0,0,0,0h1.2C51.2,39.7,51.2,38.1,50.1,38z"/>
	<path class="st0" d="M56.7,55.1h-0.9V28.6c0-1.3-1-2.3-2.3-2.3H29.5c-1.3,0-2.3,1-2.3,2.3v26.5h-0.9c-1.1,0-1.1,1.7,0,1.7h30.4
		C57.7,56.8,57.8,55.1,56.7,55.1z M40.6,55.1h-5.1l0-9.1l5.1,0V55.1z M47.4,55.1h-5.1V46l5.1,0V55.1z M54.1,55.1h-5v-9.1
		c0-0.9-0.8-1.7-1.7-1.7H35.5c-0.9,0-1.7,0.8-1.7,1.7v9.1h-5V28.6c0-0.4,0.3-0.7,0.7-0.7h23.9c0.4,0,0.7,0.3,0.7,0.7V55.1z"/>
</g>
</svg>
