<?xml version="1.0" encoding="utf-8"?>
<!-- Generator: Adobe Illustrator 27.6.1, SVG Export Plug-In . SVG Version: 6.00 Build 0)  -->
<svg version="1.1" id="레이어_1" xmlns="http://www.w3.org/2000/svg" xmlns:xlink="http://www.w3.org/1999/xlink" x="0px"
	 y="0px" viewBox="0 0 83 83" style="enable-background:new 0 0 83 83;" xml:space="preserve">
<style type="text/css">
	.st0{fill:#FFFFFF;}
</style>
<g>
	<path class="st0" d="M36.4,38.1h10.2c1.7,0,3.1-1.4,3.1-3.1v-5.1c0-1.7-1.4-3.1-3.1-3.1H36.4c-1.7,0-3.1,1.4-3.1,3.1V35
		C33.3,36.7,34.7,38.1,36.4,38.1z M48.1,29.9V35c0,0.8-0.7,1.5-1.5,1.5H36.4c-0.8,0-1.5-0.7-1.5-1.5v-4.9v-0.2
		c0-0.8,0.7-1.5,1.5-1.5h10.2C47.4,28.4,48.1,29.1,48.1,29.9z"/>
	<path class="st0" d="M44.3,49.4h-5.5c-1.1,0-2,0.9-2,2v2.8c0,1.1,0.9,2,2,2h5.6c1.1,0,2-0.9,2-2v-2.8
		C46.3,50.3,45.4,49.4,44.3,49.4z M38.3,51.5c0-0.2,0.2-0.4,0.4-0.4h5.6c0.2,0,0.4,0.2,0.4,0.4v2.8c0,0.2-0.2,0.4-0.4,0.4h-5.5
		c-0.2,0-0.4-0.2-0.4-0.4L38.3,51.5L38.3,51.5z"/>
	<path class="st0" d="M55.5,49.4h-5.6c-1.1,0-2,0.9-2,2v2.8c0,1.1,0.9,2,2,2h5.6c1.1,0,2-0.9,2-2v-2.8
		C57.5,50.3,56.6,49.4,55.5,49.4z M55.9,54.2c0,0.2-0.2,0.4-0.4,0.4h-5.6c-0.2,0-0.4-0.2-0.4-0.4v-2.8c0-0.2,0.2-0.4,0.4-0.4h5.6
		c0.2,0,0.4,0.2,0.4,0.4V54.2z"/>
	<path class="st0" d="M33.1,49.4h-5.5c-0.5,0-1.1,0.2-1.4,0.6c-0.4,0.4-0.6,0.9-0.6,1.4v2.8c0,1.1,0.9,2,2,2h5.6c1.1,0,2-0.9,2-2
		v-2.8C35.1,50.3,34.2,49.4,33.1,49.4z M33.5,54.2c0,0.2-0.2,0.4-0.4,0.4h-5.6c-0.1,0-0.2,0-0.3-0.1c-0.1-0.1-0.1-0.2-0.1-0.3v-2.8
		c0-0.2,0.2-0.4,0.4-0.4h5.6c0.2,0,0.4,0.2,0.4,0.4V54.2z"/>
	<path class="st0" d="M30.3,48c0.4,0,0.8-0.4,0.8-0.8c0-1.5,1.2-2.7,2.7-2.7h6.9v2.7c0,0.4,0.4,0.8,0.8,0.8c0.4,0,0.8-0.4,0.8-0.8
		v-2.7h6.9c1.5,0,2.7,1.2,2.7,2.7c0,0.4,0.4,0.8,0.8,0.8c0.4,0,0.8-0.4,0.8-0.8c0-2.4-1.9-4.3-4.3-4.3h-6.8v-2.7
		c0-0.4-0.4-0.8-0.8-0.8s-0.8,0.4-0.8,0.8V43h-6.9c-2.4,0-4.3,1.9-4.3,4.3C29.5,47.7,29.9,48,30.3,48z"/>
</g>
</svg>
