<?xml version="1.0" encoding="utf-8"?>
<!-- Generator: Adobe Illustrator 27.6.1, SVG Export Plug-In . SVG Version: 6.00 Build 0)  -->
<svg version="1.1" id="레이어_1" xmlns="http://www.w3.org/2000/svg" xmlns:xlink="http://www.w3.org/1999/xlink" x="0px"
	 y="0px" viewBox="0 0 576 512" style="enable-background:new 0 0 576 512;" xml:space="preserve">
<style type="text/css">
	.st0{fill:#FFFFFF;}
</style>
<path class="st0" d="M288,0c134.4,0,224,35.2,224,80v16v32c17.7,0,32,14.3,32,32v64c0,17.7-14.3,32-32,32v160c0,17.7-14.3,32-32,32
	v32c0,17.7-14.3,32-32,32h-32c-17.7,0-32-14.3-32-32v-32H192v32c0,17.7-14.3,32-32,32h-32c-17.7,0-32-14.3-32-32v-32
	c-17.7,0-32-14.3-32-32V256c-17.7,0-32-14.3-32-32v-64c0-17.7,14.3-32,32-32l0,0V96l0,0V80C64,35.2,153.6,0,288,0z M128,160v96
	c0,17.7,14.3,32,32,32h112V128H160C142.3,128,128,142.3,128,160z M304,288h112c17.7,0,32-14.3,32-32v-96c0-17.7-14.3-32-32-32H304
	V288z M144,400c17.7,0,32-14.3,32-32s-14.3-32-32-32s-32,14.3-32,32S126.3,400,144,400z M432,400c17.7,0,32-14.3,32-32
	s-14.3-32-32-32s-32,14.3-32,32S414.3,400,432,400z M384,80c0-8.8-7.2-16-16-16H208c-8.8,0-16,7.2-16,16s7.2,16,16,16h160
	C376.8,96,384,88.8,384,80z"/>
</svg>
