<?xml version="1.0" encoding="utf-8"?>
<!-- Generator: Adobe Illustrator 27.5.0, SVG Export Plug-In . SVG Version: 6.00 Build 0)  -->
<svg version="1.1" id="레이어_1" xmlns="http://www.w3.org/2000/svg" xmlns:xlink="http://www.w3.org/1999/xlink" x="0px"
	 y="0px" viewBox="0 0 70 100" style="enable-background:new 0 0 70 100;" xml:space="preserve">
<style type="text/css">
	.st0{fill:#0068A7;}
	.st1{fill:#FFFFFF;}
</style>
<g>
	<circle class="st0" cx="35" cy="27" r="27"/>
</g>
<path class="st1" d="M35,14.3c6.6,0,11.1,1.7,11.1,4v0.8v1.6c0.9,0,1.6,0.7,1.6,1.6v3.2c0,0.9-0.7,1.6-1.6,1.6V35
	c0,0.9-0.7,1.6-1.6,1.6v1.6c0,0.9-0.7,1.6-1.6,1.6h-1.6c-0.9,0-1.6-0.7-1.6-1.6v-1.6h-9.5v1.6c0,0.9-0.7,1.6-1.6,1.6H27
	c-0.9,0-1.6-0.7-1.6-1.6v-1.6c-0.9,0-1.6-0.7-1.6-1.6v-8c-0.9,0-1.6-0.7-1.6-1.6v-3.2c0-0.9,0.7-1.6,1.6-1.6l0,0V19l0,0v-0.8
	C23.9,16.1,28.4,14.3,35,14.3z M27.1,22.3V27c0,0.9,0.7,1.6,1.6,1.6h5.5v-7.9h-5.5C27.8,20.7,27.1,21.4,27.1,22.3z M35.8,28.6h5.5
	c0.9,0,1.6-0.7,1.6-1.6v-4.7c0-0.9-0.7-1.6-1.6-1.6h-5.5V28.6z M27.9,34.1c0.9,0,1.6-0.7,1.6-1.6c0-0.9-0.7-1.6-1.6-1.6
	s-1.6,0.7-1.6,1.6C26.3,33.4,27,34.1,27.9,34.1z M42.1,34.1c0.9,0,1.6-0.7,1.6-1.6c0-0.9-0.7-1.6-1.6-1.6s-1.6,0.7-1.6,1.6
	C40.5,33.4,41.2,34.1,42.1,34.1z M39.7,18.3c0-0.4-0.4-0.8-0.8-0.8H31c-0.4,0-0.8,0.4-0.8,0.8c0,0.4,0.4,0.8,0.8,0.8h8
	C39.4,19.1,39.7,18.7,39.7,18.3z"/>
</svg>
