<svg id="Layer_1" enable-background="new 0 0 512 512" height="512" viewBox="0 0 512 512" width="512" xmlns="http://www.w3.org/2000/svg"><g><path d="m468.333 0h-424.666v424.667h154.666v87.333h115.334v-87.333h154.666zm-30 394.667h-364.666v-364.667h364.666zm-210 87.333v-57.333h55.334v57.333z"/><path d="m153.422 278.63c23.534 0 42.681-19.146 42.681-42.68 0-12.725-5.605-24.16-14.467-31.986 3.32-5.704 5.233-12.324 5.233-19.385 0-21.319-17.344-38.663-38.663-38.663h-44.872v132.744c-.001 0 48.208-.03 50.088-.03zm0-30c-3.782 0-12.353.03-20.089.06v-25.406c1.365-.005 20.089-.015 20.089-.015 6.992 0 12.681 5.689 12.681 12.681-.001 6.991-5.689 12.68-12.681 12.68zm-20.089-72.715h14.872c4.776 0 8.663 3.886 8.663 8.663s-3.887 8.663-8.663 8.663c-2.222 0-14.872.028-14.872.028z"/><path d="m233.869 270.971c8.061 5.15 17.148 7.768 27.012 7.781h.08c8.477 0 16.441-1.847 23.675-5.49 17.82-8.975 27.635-23.769 27.635-41.658v-85.689h-30v85.689c0 4.579-1.322 9.925-11.13 14.864-3.051 1.537-6.381 2.284-10.179 2.284-.014 0-.027 0-.04 0-4.119-.006-7.685-1.007-10.9-3.062-7.668-4.9-9.209-8.994-9.209-14.012v-85.763h-30v85.763c0 16.297 7.756 29.517 23.056 39.293z"/><path d="m371.543 248.752c-9.338 0-18.299-3.737-23.972-9.998l-22.23 20.145c11.433 12.617 28.273 19.853 46.202 19.853 22.133 0 41.382-14.774 44.776-34.366 2.598-14.989-3.299-34.265-27.639-43.411-7.425-2.79-13.005-4.156-17.488-5.254-5.313-1.301-7.579-1.901-10.381-3.722-2.284-1.485-3.056-4.77-3.016-6.617.048-2.272 1.983-6.347 7.119-8.264 10.44-3.897 20.068 2.35 32.528 11.604l17.887-24.084c-12.855-9.548-34.373-25.527-60.903-15.626-15.596 5.82-26.295 20.18-26.625 35.734-.218 10.289 4.044 24.206 16.66 32.407 7.183 4.669 13.493 6.214 19.596 7.708 4.092 1.002 8.323 2.038 14.07 4.197 9.765 3.67 8.942 8.419 8.632 10.207-.661 3.825-5.956 9.487-15.216 9.487z"/></g></svg>