<?xml version="1.0" encoding="utf-8"?>
<!-- Generator: Adobe Illustrator 27.5.0, SVG Export Plug-In . SVG Version: 6.00 Build 0)  -->
<svg version="1.1" id="레이어_1" xmlns="http://www.w3.org/2000/svg" xmlns:xlink="http://www.w3.org/1999/xlink" x="0px"
	 y="0px" viewBox="0 0 512 512" style="enable-background:new 0 0 512 512;" xml:space="preserve">
<style type="text/css">
	.st0{fill:#333333;}
</style>
<path class="st0" d="M135.2,117.4L109.1,192h293.8l-26.1-74.6c-4.5-12.8-16.6-21.4-30.2-21.4H165.4
	C151.8,96,139.7,104.6,135.2,117.4z M39.6,196.8L74.8,96.3C88.3,57.8,124.6,32,165.4,32h181.2c40.8,0,77.1,25.8,90.6,64.3
	l35.2,100.5c23.2,9.6,39.6,32.5,39.6,59.2v144v48c0,17.7-14.3,32-32,32h-32c-17.7,0-32-14.3-32-32v-48H96v48c0,17.7-14.3,32-32,32
	H32c-17.7,0-32-14.3-32-32v-48V256C0,229.3,16.4,206.4,39.6,196.8z M128,288c0-17.7-14.3-32-32-32s-32,14.3-32,32s14.3,32,32,32
	S128,305.7,128,288z M416,320c17.7,0,32-14.3,32-32s-14.3-32-32-32s-32,14.3-32,32S398.3,320,416,320z"/>
</svg>
