<?xml version="1.0" encoding="utf-8"?>
<!-- Generator: Adobe Illustrator 27.5.0, SVG Export Plug-In . SVG Version: 6.00 Build 0)  -->
<svg version="1.1" id="레이어_1" xmlns="http://www.w3.org/2000/svg" xmlns:xlink="http://www.w3.org/1999/xlink" x="0px"
	 y="0px" viewBox="0 0 70 100" style="enable-background:new 0 0 70 100;" xml:space="preserve">
<style type="text/css">
	.st0{fill:#0068A7;}
	.st1{fill:#FFFFFF;}
</style>
<g>
	<circle class="st0" cx="35" cy="27" r="27"/>
</g>
<path class="st1" d="M28.8,19.9l-1.3,3.8h15.1l-1.3-3.8c-0.2-0.7-0.9-1.1-1.6-1.1h-9.3C29.6,18.8,29,19.2,28.8,19.9z M23.9,24
	l1.8-5.2c0.7-2,2.6-3.3,4.7-3.3h9.3c2.1,0,4,1.3,4.7,3.3l1.8,5.2c1.2,0.5,2,1.7,2,3v7.4v2.5c0,0.9-0.7,1.6-1.6,1.6h-1.6
	c-0.9,0-1.6-0.7-1.6-1.6v-2.5H26.8v2.5c0,0.9-0.7,1.6-1.6,1.6h-1.6c-0.9,0-1.6-0.7-1.6-1.6v-2.5V27C21.8,25.7,22.7,24.5,23.9,24z
	 M28.4,28.7c0-0.9-0.7-1.6-1.6-1.6c-0.9,0-1.6,0.7-1.6,1.6s0.7,1.6,1.6,1.6C27.7,30.3,28.4,29.6,28.4,28.7z M43.2,30.3
	c0.9,0,1.6-0.7,1.6-1.6S44.2,27,43.2,27c-0.9,0-1.6,0.7-1.6,1.6S42.3,30.3,43.2,30.3z"/>
</svg>
