<?xml version="1.0" encoding="UTF-8"?>
<svg id="_레이어_1" data-name="레이어 1" xmlns="http://www.w3.org/2000/svg" version="1.1" viewBox="0 0 512 512">
  <defs>
    <style>
      .cls-1 {
        fill: #999;
        stroke-width: 0px;
      }
    </style>
  </defs>
  <path class="cls-1" d="M256,512c141.4,0,256-114.6,256-256S397.4,0,256,0,0,114.6,0,256s114.6,256,256,256ZM256,128c13.3,0,24,10.7,24,24v112c0,13.3-10.7,24-24,24s-24-10.7-24-24v-112c0-13.3,10.7-24,24-24ZM224,352c0-17.7,14.3-32,32-32s32,14.3,32,32-14.3,32-32,32-32-14.3-32-32Z"/>
</svg>