<svg id="Layer_5" enable-background="new 0 0 64 64" height="512" viewBox="0 0 64 64" width="512" xmlns="http://www.w3.org/2000/svg"><g><g><g><path d="m24 26.18-1.59-1.37c-2.8-2.42-4.41-5.94-4.41-9.64v-.44c0-3.51 1.42-6.7 3.73-9 2.3-2.31 5.49-3.73 9-3.73 3.37 0 6.61 1.34 9 3.73l.27.27.27-.27c1.19-1.19 2.6-2.13 4.13-2.76s3.18-.97 4.87-.97c7.03 0 12.73 5.7 12.73 12.73v.44c0 3.7-1.61 7.22-4.41 9.64l-1.59 1.37-16 13.82z" fill="#ff826e"/></g><g><path d="m10 11v8h-4c-2.21 0-4-1.79-4-4 0-1.1.45-2.1 1.17-2.83.73-.72 1.73-1.17 2.83-1.17z" fill="#ccd1d9"/></g><g><path d="m18 14.73v.44 6.71c0 .58-.24 1.12-.62 1.5s-.92.62-1.5.62c-.56 0-1.1-.22-1.5-.62l-4.38-4.38v-8l4.38-4.38c.4-.4.94-.62 1.5-.62 1.17 0 2.12.95 2.12 2.12z" fill="#aab2bd"/></g><g><path d="m48 32v1.09l-8 6.91-8-6.91v-1.09c0-4.42 3.58-8 8-8s8 3.58 8 8z" fill="#b4dd7f"/></g><g><path d="m37.9 16.6c-1.14.7-1.9 1.96-1.9 3.4 0 2.21 1.79 4 4 4-4.42 0-8 3.58-8 8v1.09l-8-6.91v-4.18c0-4.42 3.58-8 8-8 1.16 0 2.28.25 3.28.7s1.89 1.1 2.62 1.9z" fill="#fcd770"/></g><g><path d="m56 22v4.18l-8 6.91v-1.09c0-4.42-3.58-8-8-8 2.21 0 4-1.79 4-4 0-1.44-.76-2.7-1.9-3.4 1.46-1.6 3.57-2.6 5.9-2.6 2.21 0 4.21.9 5.66 2.34 1.44 1.45 2.34 3.45 2.34 5.66z" fill="#fcd770"/></g><g><circle cx="48" cy="10" fill="#f0d0b4" r="4"/></g><g><path d="m42.1 16.6c1.14.7 1.9 1.96 1.9 3.4 0 2.21-1.79 4-4 4s-4-1.79-4-4c0-1.44.76-2.7 1.9-3.4.61-.38 1.33-.6 2.1-.6s1.49.22 2.1.6z" fill="#f0d0b4"/></g><g><circle cx="32" cy="10" fill="#f0d0b4" r="4"/></g></g><g><path d="m49.272 1c-3.466 0-6.736 1.275-9.272 3.604-2.537-2.329-5.807-3.604-9.272-3.604-4.999 0-9.37 2.695-11.77 6.7-.209-1.521-1.503-2.7-3.079-2.7-.822 0-1.626.333-2.207.914l-4.086 4.086h-3.586c-2.757 0-5 2.243-5 5 0 2.414 1.721 4.434 4 4.899v38.101c0 2.757 2.243 5 5 5s5-2.243 5-5v-7c0-.551.448-1 1-1h5v-2h-5c-1.654 0-3 1.346-3 3v7c0 1.654-1.346 3-3 3s-3-1.346-3-3v-38h2.586l4.086 4.086c.581.581 1.385.914 2.207.914 1.596 0 2.901-1.209 3.084-2.757.742 1.234 1.678 2.359 2.793 3.321l17.244 14.894v6.542c0 .551-.448 1-1 1h-3v2h3c1.654 0 3-1.346 3-3v-6.542l17.244-14.893c3.023-2.61 4.756-6.398 4.756-10.39v-.447c0-7.57-6.158-13.728-13.728-13.728zm-46.272 14c0-1.654 1.346-3 3-3h3v6h-3c-1.654 0-3-1.346-3-3zm14 6.879c0 .618-.503 1.121-1.121 1.121-.295 0-.584-.12-.793-.328l-4.086-4.086v-7.172l4.086-4.086c.209-.208.498-.328.793-.328.618 0 1.121.503 1.121 1.121v6.607.447zm12-11.879c0-1.654 1.346-3 3-3s3 1.346 3 3-1.346 3-3 3-3-1.346-3-3zm16 0c0-1.654 1.346-3 3-3s3 1.346 3 3-1.346 3-3 3-3-1.346-3-3zm10 15.724-6.065 5.238c-.383-3.315-2.572-6.085-5.558-7.299.991-.914 1.623-2.212 1.623-3.663 0-1.335-.533-2.543-1.389-3.44 1.237-.996 2.785-1.56 4.389-1.56 3.859 0 7 3.14 7 7zm-8 6.909-7 6.045-7-6.045v-.633c0-3.86 3.141-7 7-7s7 3.14 7 7zm-4-12.633c0 1.654-1.346 3-3 3s-3-1.346-3-3 1.346-3 3-3 3 1.346 3 3zm-6.377 3.663c-2.986 1.214-5.175 3.983-5.558 7.299l-6.065-5.238v-3.724c0-3.86 3.141-7 7-7 1.604 0 3.152.564 4.389 1.56-.856.897-1.389 2.105-1.389 3.44 0 1.451.632 2.749 1.623 3.663zm24.377-8.488c0 3.382-1.459 6.588-4 8.816v-1.991c0-3.768-2.33-6.998-5.623-8.337.991-.914 1.623-2.212 1.623-3.663 0-2.757-2.243-5-5-5s-5 2.243-5 5c0 1.454.635 2.754 1.629 3.668-.996.403-1.918.98-2.718 1.715-.59-.245-1.234-.383-1.911-.383s-1.321.138-1.911.383c-.8-.735-1.722-1.312-2.718-1.715.994-.914 1.629-2.214 1.629-3.668 0-2.757-2.243-5-5-5s-5 2.243-5 5c0 1.451.632 2.749 1.623 3.663-3.293 1.339-5.623 4.569-5.623 8.337v1.991c-2.541-2.228-4-5.434-4-8.816v-.447c0-6.467 5.261-11.728 11.728-11.728 3.133 0 6.078 1.22 8.294 3.436l.978.977.979-.978c2.215-2.215 5.161-3.435 8.293-3.435 6.467 0 11.728 5.261 11.728 11.728z"/><path d="m23 46h2v6h-2z"/><path d="m27 46h2v6h-2z"/><path d="m31 46h2v6h-2z"/></g></g></svg>