<svg id="Capa_1" enable-background="new 0 0 588.646 588.646" height="512" viewBox="0 0 588.646 588.646" width="512" xmlns="http://www.w3.org/2000/svg"><g><g id="Layer_x0020_1_00000078003175540891203900000003058753201832431246_"><g id="_201653456"><g id="_201653744"><path d="m106.559 214.611h-54.016c-7.62 0-13.796-6.177-13.796-13.796v-187.019c0-7.619 6.177-13.796 13.796-13.796h54.016c7.62 0 13.796 6.177 13.796 13.796v187.018c0 7.62-6.177 13.797-13.796 13.797zm-40.22-27.593h26.423v-159.425h-26.423z"/></g><g id="_201653624"><path d="m106.559 401.63h-54.016c-7.62 0-13.796-6.176-13.796-13.796v-187.019c0-7.62 6.177-13.796 13.796-13.796h54.016c7.62 0 13.796 6.177 13.796 13.796v187.018c0 7.62-6.177 13.797-13.796 13.797zm-40.22-27.593h26.423v-159.426h-26.423z"/></g><g id="_201653504"><path d="m106.559 588.646h-54.016c-7.62 0-13.796-6.176-13.796-13.796v-187.018c0-7.62 6.177-13.796 13.796-13.796h54.016c7.62 0 13.796 6.176 13.796 13.796v187.018c0 7.62-6.177 13.796-13.796 13.796zm-40.22-27.592h26.423v-159.426h-26.423z"/></g></g><g id="_201652640"><g><g id="_201653360"><path d="m292.89 118.714c-7.62 0-13.796-6.177-13.796-13.796v-51.193c0-7.62 6.177-13.796 13.796-13.796 7.62 0 13.797 6.177 13.797 13.796v51.192c0 7.62-6.178 13.797-13.797 13.797z"/></g><g id="_201653264"><path d="m292.89 262.049c-7.62 0-13.796-6.177-13.796-13.796v-51.193c0-7.62 6.177-13.796 13.796-13.796 7.62 0 13.797 6.177 13.797 13.796v51.192c0 7.62-6.178 13.797-13.797 13.797z"/></g><g id="_201653144"><path d="m292.89 405.384c-7.62 0-13.796-6.177-13.796-13.796v-51.193c0-7.619 6.177-13.796 13.796-13.796 7.62 0 13.797 6.177 13.797 13.796v51.193c0 7.619-6.178 13.796-13.797 13.796z"/></g><g id="_201653000"><path d="m292.89 548.719c-7.62 0-13.796-6.176-13.796-13.796v-51.192c0-7.619 6.177-13.796 13.796-13.796 7.62 0 13.797 6.177 13.797 13.796v51.192c0 7.62-6.178 13.796-13.797 13.796z"/></g></g><g id="_201652856"><path d="m166.303 588.645c-7.62 0-13.796-6.176-13.796-13.796v-561.052c0-7.62 6.177-13.796 13.796-13.796s13.796 6.177 13.796 13.796v561.052c0 7.62-6.177 13.796-13.796 13.796z"/></g><g id="_201652688"><path d="m422.343 588.645c-7.62 0-13.796-6.176-13.796-13.796v-561.052c0-7.62 6.176-13.796 13.796-13.796s13.796 6.177 13.796 13.796v561.052c0 7.62-6.176 13.796-13.796 13.796z"/></g></g><g id="_201652232"><g id="_201652520"><path d="m536.103 214.611h-54.014c-7.619 0-13.796-6.177-13.796-13.796v-187.019c-.001-7.619 6.177-13.796 13.796-13.796h54.014c7.62 0 13.796 6.177 13.796 13.796v187.018c.001 7.62-6.176 13.797-13.796 13.797zm-40.218-27.593h26.422v-159.425h-26.422z"/></g><g id="_201652400"><path d="m536.103 401.63h-54.014c-7.619 0-13.796-6.176-13.796-13.796v-187.019c0-7.62 6.177-13.796 13.796-13.796h54.014c7.62 0 13.796 6.177 13.796 13.796v187.018c.001 7.62-6.176 13.797-13.796 13.797zm-40.218-27.593h26.422v-159.426h-26.422z"/></g><g id="_201652304"><path d="m536.103 588.646h-54.014c-7.619 0-13.796-6.176-13.796-13.796v-187.018c0-7.62 6.177-13.796 13.796-13.796h54.014c7.62 0 13.796 6.176 13.796 13.796v187.018c.001 7.62-6.176 13.796-13.796 13.796zm-40.218-27.592h26.422v-159.426h-26.422z"/></g></g></g></g></svg>