<svg id="Capa_1" enable-background="new 0 0 512 512" height="512" viewBox="0 0 512 512" width="512" xmlns="http://www.w3.org/2000/svg"><path d="m497.52 214.92-208.36-201.44c-18.59-17.98-47.73-17.98-66.33 0l-208.35 201.44c-13.98 13.52-18.28 33.87-10.96 51.85s24.64 29.6 44.12 29.6h6.38v148.25c0 37.16 30.35 67.39 67.66 67.39h46.61v-145.26c0-37.16 30.35-67.39 67.66-67.39h40.09c37.31 0 67.66 30.23 67.66 67.39v145.25h46.61c37.31 0 67.66-30.23 67.66-67.39v-148.24h6.38c19.48 0 36.8-11.62 44.12-29.6 7.33-17.98 3.03-38.33-10.95-51.85z"/></svg>