<?xml version="1.0" encoding="utf-8"?>
<!-- Generator: Adobe Illustrator 27.6.1, SVG Export Plug-In . SVG Version: 6.00 Build 0)  -->
<svg version="1.1" id="레이어_1" xmlns="http://www.w3.org/2000/svg" xmlns:xlink="http://www.w3.org/1999/xlink" x="0px"
	 y="0px" viewBox="0 0 50 50" style="enable-background:new 0 0 50 50;" xml:space="preserve">
<style type="text/css">
	.st0{fill:#333333;}
</style>
<g>
	<g>
		<path class="st0" d="M31.9,20.1c-2.4,0-4.3-1.9-4.3-4.3s1.9-4.3,4.3-4.3s4.3,1.9,4.3,4.3S34.3,20.1,31.9,20.1z M31.9,13.2
			c-1.4,0-2.6,1.2-2.6,2.6c0,1.4,1.2,2.6,2.6,2.6s2.6-1.2,2.6-2.6C34.5,14.3,33.4,13.2,31.9,13.2z"/>
	</g>
	<g>
		<path class="st0" d="M18.1,29.3c-2.4,0-4.3-1.9-4.3-4.3c0-2.4,1.9-4.3,4.3-4.3s4.3,1.9,4.3,4.3C22.4,27.4,20.5,29.3,18.1,29.3z
			 M18.1,22.4c-1.4,0-2.6,1.2-2.6,2.6c0,1.4,1.2,2.6,2.6,2.6c1.4,0,2.6-1.2,2.6-2.6C20.7,23.6,19.5,22.4,18.1,22.4z"/>
	</g>
	<g>
		<path class="st0" d="M31.9,38.6c-2.4,0-4.3-1.9-4.3-4.3c0-2.4,1.9-4.3,4.3-4.3s4.3,1.9,4.3,4.3C36.3,36.6,34.3,38.6,31.9,38.6z
			 M31.9,31.7c-1.4,0-2.6,1.2-2.6,2.6c0,1.4,1.2,2.6,2.6,2.6s2.6-1.2,2.6-2.6C34.5,32.8,33.4,31.7,31.9,31.7z"/>
	</g>
	<g>
		
			<rect x="19.5" y="19.7" transform="matrix(0.8218 -0.5698 0.5698 0.8218 -7.3285 17.6983)" class="st0" width="10.2" height="1.8"/>
	</g>
	<g>
		
			<rect x="23.7" y="24.5" transform="matrix(0.5929 -0.8053 0.8053 0.5929 -13.8378 31.8862)" class="st0" width="1.8" height="10.4"/>
	</g>
</g>
</svg>
