<?xml version="1.0" encoding="UTF-8"?>
<svg id="_레이어_1" data-name="레이어 1" xmlns="http://www.w3.org/2000/svg" version="1.1" viewBox="0 0 150 150">
  <defs>
    <style>
      .cls-1 {
        fill: #371c1d;
        stroke-width: 0px;
      }
    </style>
  </defs>
  <polygon class="cls-1" points="64.9 69.8 60.9 57.5 56.6 69.8 64.9 69.8"/>
  <path class="cls-1" d="M75,11.9C37.1,11.9,6.3,36.2,6.3,66.2s13,36.6,32.6,46.2c-1.4,5.4-5.2,19.4-6,22.4-.9,3.7,1.4,3.7,2.9,2.7,1.2-.8,18.8-12.8,26.4-18,4.1.6,8.4.9,12.8.9,37.9,0,68.7-24.3,68.7-54.3S112.9,11.9,75,11.9ZM117.6,82.1l-9.3-12.7-2.1,1.7s0,6.3,0,9.6c0,2.9-7.3,2.9-7.3,0,0-1.8.2-26.2,0-28.9,0-1.5,1.9-2.3,3.7-2.3s3.4.7,3.5,2.1c0,3.7,0,10.3,0,10.3,0,0,10.5-10.5,12-12,1.5-1.5,6.3,3.3,4.8,4.8-2.6,2.6-9.4,9.9-9.4,9.9l9.9,13c1.9,2.5-4,7-5.9,4.5ZM65.1,51.7c1.3,2.7,8.1,21.6,10.1,26.8,1.4,3.7-5.3,6.2-6.7,2.5-1.7-4.5-1.3-4.7-1.3-4.7h-12.9l-1.4,4.9c-1.5,3.5-8,.6-6.5-2.8,2.1-4.8,8.4-22.9,10.1-26.7.7-1.5,2.3-2.1,4-2.1s4.1.9,4.7,2.1ZM48.6,49.6c4.4,0,4.4,6.9,0,6.9-4.7,0-7,0-7,0v23.7c0,3.3-7.4,3.3-7.4,0,0-4.5,0-24,0-24h-7.1c-4.1,0-4.2-6.8,0-6.8,0,0,16.6.1,21.5.1ZM77.8,78.8s0-19.8,0-26c0-2.2,1.9-3.2,3.8-3.2s3.8,1.1,3.8,3.2c0,4.5,0,22.8,0,22.8,0,0,6.1,0,9.4,0s3.3,7.1,0,7.1-10.8,0-14.2,0-2.8-3.9-2.8-3.9Z"/>
</svg>