<?xml version="1.0" encoding="utf-8"?>
<!-- Generator: Adobe Illustrator 27.6.1, SVG Export Plug-In . SVG Version: 6.00 Build 0)  -->
<svg version="1.1" id="레이어_1" xmlns="http://www.w3.org/2000/svg" xmlns:xlink="http://www.w3.org/1999/xlink" x="0px"
	 y="0px" viewBox="0 0 300 300" style="enable-background:new 0 0 300 300;" xml:space="preserve">
<style type="text/css">
	.st0{fill:#0078C0;}
	.st1{fill:#FFFFFF;}
</style>
<g>
	<path class="st0" d="M150,15.8c-74.1,0-134.2,60-134.2,134.1h0v0.2v134.2H150c6.9,0,13.8-0.5,20.4-1.5
		c64.4-9.8,113.8-65.5,113.8-132.7C284.2,75.9,224.1,15.8,150,15.8z"/>
	<path class="st1" d="M127.4,118.4v13.5h45.1v-13.5c0-12.5-10.1-22.6-22.6-22.6S127.4,105.9,127.4,118.4z M109.4,131.9v-13.5
		c0-22.4,18.2-40.6,40.6-40.6s40.6,18.2,40.6,40.6v13.5h4.5c10,0,18.1,8.1,18.1,18.1v54.2c0,10-8.1,18.1-18.1,18.1h-90.3
		c-10,0-18.1-8.1-18.1-18.1V150c0-10,8.1-18.1,18.1-18.1H109.4z"/>
</g>
</svg>
