<?xml version="1.0" encoding="utf-8"?>
<!-- Generator: Adobe Illustrator 27.6.1, SVG Export Plug-In . SVG Version: 6.00 Build 0)  -->
<svg version="1.1" id="레이어_1" xmlns="http://www.w3.org/2000/svg" xmlns:xlink="http://www.w3.org/1999/xlink" x="0px"
	 y="0px" viewBox="0 0 150 150" style="enable-background:new 0 0 150 150;" xml:space="preserve">
<style type="text/css">
	.st0{fill:#0078C0;}
	.st1{fill:#FFFFFF;}
</style>
<g>
	<path class="st0" d="M91,116H59c-13.8,0-25-11.2-25-25V59c0-13.8,11.2-25,25-25h32c13.8,0,25,11.2,25,25v32
		C116,104.8,104.8,116,91,116z"/>
</g>
<path class="st1" d="M88,71.1c0,3.7-1.2,7.2-3.2,9.9L95,91.3c1,1,1,2.7,0,3.7c-1,1-2.7,1-3.7,0L81.1,84.7c-2.8,2-6.2,3.2-9.9,3.2
	c-9.3,0-16.9-7.5-16.9-16.9s7.5-16.9,16.9-16.9S88,61.8,88,71.1z M71.1,82.8c6.4,0,11.7-5.2,11.7-11.7c0-6.4-5.2-11.7-11.7-11.7
	c-6.4,0-11.7,5.2-11.7,11.7C59.4,77.5,64.7,82.8,71.1,82.8z"/>
</svg>
