<?xml version="1.0" encoding="utf-8"?>
<!-- Generator: Adobe Illustrator 27.6.1, SVG Export Plug-In . SVG Version: 6.00 Build 0)  -->
<svg version="1.1" id="레이어_1" xmlns="http://www.w3.org/2000/svg" xmlns:xlink="http://www.w3.org/1999/xlink" x="0px"
	 y="0px" viewBox="0 0 411 461" style="enable-background:new 0 0 411 461;" xml:space="preserve">
<style type="text/css">
	.st0{fill-rule:evenodd;clip-rule:evenodd;fill:#F6DCCD;}
	.st1{fill-rule:evenodd;clip-rule:evenodd;fill:#F1CBBC;}
	.st2{fill-rule:evenodd;clip-rule:evenodd;fill:#D1D1D6;}
	.st3{fill-rule:evenodd;clip-rule:evenodd;fill:#B1B1B5;}
	.st4{fill-rule:evenodd;clip-rule:evenodd;fill:#FFFFFF;}
	.st5{fill-rule:evenodd;clip-rule:evenodd;fill:#D1D1D1;}
	.st6{fill:none;}
	.st7{fill:#333333;}
</style>
<g>
	<g>
		<g>
			<path class="st0" d="M213.6,369.4l31.2-18.1c5.9-3.4,11.8-5.8,18.3-3.7c7.2,2.3,18.9,7.3,30.9,9.5c4.4,1.4,7.2,5.9,6,10.4
				c-1.2,4.5-5,6.8-10.4,6l4.2,0.7c4.8,0.8,9.2,0.1,13.4-2.3l30-17.5c23.3-13.6,26.8,7.3,19,12.1L301.7,400
				c-5,3.1-10.5,3.8-16.2,2.3L246,391.7l-14.6,8.5c-2.8,1.6-6.4,0.7-8.1-2.2l-11.8-20.5C209.8,374.6,210.8,371,213.6,369.4
				L213.6,369.4z"/>
			<path class="st1" d="M299.2,369.3c-1.7,3.3-5.1,4.8-9.7,4.1c-6.5-1.7-12.9-3.5-19.4-5.2c-1.7-0.5-2.8-2.2-2.3-4
				c0.5-1.7,2.2-2.8,4-2.3L299.2,369.3z"/>
			<path class="st1" d="M213.6,369.4l31.2-18.1c5.9-3.4,11.8-5.8,18.3-3.7c3.8,1.2,9,3.3,14.8,5.2l-60.5,34.9l-5.9-10.3
				C209.8,374.6,210.8,371,213.6,369.4z"/>
			<path class="st2" d="M217.2,360.4l24.8,43.8c1.2,2.1,0.4,4.8-1.7,6l-8.4,4.8c-2.1,1.2-4.8,0.4-6-1.7l-24.8-43.8
				c-1.2-2.1-0.4-4.8,1.7-6l8.4-4.8C213.3,357.5,216,358.3,217.2,360.4L217.2,360.4z"/>
			<path class="st3" d="M230.2,390.5l4.4,7.7l4.3,7.7c1.2,2.1,0.4,4.8-1.7,6l3-1.7c2.1-1.2,2.9-3.9,1.7-6l-4.4-7.7l-8.7-15.4
				l-8.7-15.5l-2.9-5.2c-1-1.8-3.2-2.6-5.2-2l5.1,9l8.7,15.4L230.2,390.5L230.2,390.5z"/>
		</g>
		<g>
			<path class="st4" d="M287.3,331.3c3.9,0,7.1,3.2,7.1,7.1c0,3.9-3.2,7.1-7.1,7.1c-3.9,0-7.1-3.2-7.1-7.1
				C280.3,334.4,283.4,331.3,287.3,331.3z M328.5,307.6c3.9,0,7.1,3.2,7.1,7.1c0,3.9-3.2,7.1-7.1,7.1c-3.9,0-7.1-3.2-7.1-7.1
				C321.4,310.8,324.6,307.6,328.5,307.6z M316.8,322.9c3.9,0,7.1,3.2,7.1,7.1c0,3.9-3.2,7.1-7.1,7.1c-3.9,0-7.1-3.2-7.1-7.1
				C309.8,326,313,322.9,316.8,322.9L316.8,322.9z M246.2,307.6c3.9,0,7.1,3.2,7.1,7.1c0,3.9-3.2,7.1-7.1,7.1
				c-3.9,0-7.1-3.2-7.1-7.1C239.1,310.8,242.3,307.6,246.2,307.6z M257.8,322.9c3.9,0,7.1,3.2,7.1,7.1c0,3.9-3.2,7.1-7.1,7.1
				c-3.9,0-7.1-3.2-7.1-7.1C250.8,326,253.9,322.9,257.8,322.9L257.8,322.9z"/>
			<path class="st4" d="M250.2,272.6c-5.7,2.3-9.8,8-9.8,14.5c0,8.6,7,15.6,15.6,15.6h62.4c8.6,0,15.6-7,15.6-15.6
				c0-7.2-4.9-13.3-11.6-15.1c-1.2-11.3-10.8-20.1-22.4-20.1c-2.7,0-5.2,0.5-7.6,1.3c-4.5-4.4-10.6-7-17.4-7c-13.8,0-25,11.2-25,25
				C250.2,271.6,250.2,272.1,250.2,272.6z"/>
			<path class="st5" d="M315,302.7h3.5c8.6,0,15.6-7,15.6-15.6c0-7.2-4.9-13.3-11.6-15.1c-1.2-11.3-10.8-20.1-22.4-20.1
				c-0.6,0-1.2,0-1.8,0.1c10.8,0.8,19.5,9.3,20.7,20c6.6,1.8,11.6,7.9,11.6,15.1C330.7,295.7,323.6,302.7,315,302.7L315,302.7z
				 M292.6,253.2c-4.5-4.4-10.6-7-17.4-7c-0.6,0-1.2,0-1.8,0.1c6,0.4,12.3,3.8,16.4,7.7C290.8,253.6,291.7,253.4,292.6,253.2z"/>
		</g>
	</g>
	<circle class="st6" cx="287.3" cy="338.3" r="0.4"/>
	<path class="st6" d="M331,315.1c0.2,0,0.4-0.2,0.4-0.4s-0.2-0.4-0.4-0.4c-0.2,0-0.4,0.2-0.4,0.4S330.8,315.1,331,315.1z"/>
	<path class="st6" d="M329.7,287.1c0-5-3.4-9.5-8.3-10.8c-1.8-0.5-3.1-2-3.3-3.8c-1-9.2-8.7-16.2-18-16.2c-2.1,0-4.2,0.4-6.1,1.1
		c-1.6,0.6-3.4,0.2-4.6-1c-3.9-3.7-8.9-5.8-14.3-5.8c-11.3,0-20.6,9.2-20.6,20.6c0,0.4,0,0.8,0,1.2c0.1,1.9-1,3.6-2.8,4.4
		c-4.3,1.7-7,5.8-7,10.4c0,3,1.2,5.8,3.3,7.9c2.1,2.1,4.9,3.3,7.9,3.3h62.4C324.7,298.3,329.7,293.2,329.7,287.1z M275.2,260
		c-6.1,0-11.1,5-11.1,11.1c0,2.4-2,4.4-4.4,4.4s-4.4-2-4.4-4.4c0-11,9-20,20-20c2.4,0,4.4,2,4.4,4.4C279.6,258,277.6,260,275.2,260z
		"/>
	<path class="st6" d="M257.8,329.5c-0.2,0-0.4,0.2-0.4,0.4s0.2,0.4,0.4,0.4s0.4-0.2,0.4-0.4S258,329.5,257.8,329.5z"/>
	<path class="st6" d="M316.9,330.4c0.2,0,0.4-0.2,0.4-0.4s-0.2-0.4-0.4-0.4c-0.2,0-0.4,0.2-0.4,0.4S316.6,330.4,316.9,330.4z"/>
	<path class="st6" d="M242.8,314.2c-0.2,0-0.4,0.2-0.4,0.4s0.2,0.4,0.4,0.4c0.2,0,0.4-0.2,0.4-0.4S243,314.2,242.8,314.2z"/>
	<path class="st6" d="M204.9,367.4l24.8,43.7l8.4-4.8v0l-24.8-43.8L204.9,367.4z M216,368.4L216,368.4c0.2,1.2-0.1,2.4-0.9,3.4
		c-0.7,1-1.8,1.6-3,1.8c-0.2,0-0.4,0-0.7,0c-2.3,0-4.2-1.7-4.6-4c-0.4-2.5,1.4-4.9,3.9-5.2C213.3,364.1,215.7,365.9,216,368.4z"/>
	<path class="st6" d="M339.4,358.1l-30,17.5c-5,2.9-10.3,3.8-16.3,2.9c-1-0.2-2-0.3-3-0.5c-0.2,0-0.4,0-0.6-0.1
		c-0.4,0-0.7-0.1-1.1-0.3c-4.6-1-8.8-2.1-13.1-3.4l-0.1,0c-2-0.6-4-1.1-6.1-1.7c-1.1-0.3-2.1-1-2.7-2.1c-0.6-1-0.8-2.2-0.4-3.4
		c0.6-2.4,3.1-3.8,5.4-3.1c2.2,0.6,4.3,1.2,6.3,1.7c4.6,1.3,8.9,2.5,13.7,3.5c3.2,0.2,4.1-1.6,4.4-2.9c0.5-2.1-0.6-4.1-2.8-4.9
		c-9.1-1.7-17.8-4.8-24.8-7.3c-2.4-0.9-4.5-1.6-6.4-2.2c-5-1.6-10,0.6-14.7,3.3l-20.9,12.1l13.1,23.2l4.5-2.6
		c0.7-0.4,1.5-0.6,2.2-0.6c0.4,0,0.8,0,1.1,0.1l39.5,10.6c4.5,1.2,8.8,0.6,12.7-1.8l54.5-33.6c1.5-0.9,2.3-4.3,0.9-6.5
		C352.9,353,347,353.7,339.4,358.1z"/>
	<path class="st7" d="M211.3,367.7c-0.8,0.1-1.3,0.8-1.2,1.6c0.1,0.8,0.8,1.3,1.6,1.2c0.4-0.1,0.7-0.2,0.9-0.5
		c0.2-0.3,0.3-0.7,0.3-1c-0.1-0.7-0.7-1.2-1.4-1.2C211.4,367.7,211.3,367.7,211.3,367.7z"/>
	<path class="st7" d="M275.2,254.4c-9.2,0-16.8,7.5-16.8,16.8c0,0.7,0.5,1.2,1.2,1.2c0.7,0,1.2-0.5,1.2-1.2
		c0-7.9,6.4-14.4,14.3-14.4c0.7,0,1.2-0.5,1.2-1.2C276.4,254.9,275.9,254.4,275.2,254.4z"/>
	<path class="st7" d="M248.8,313.5l-0.4-1c-0.9-2.3-3.2-3.8-5.6-3.8c-3.3,0-6.1,2.7-6.1,6.1s2.7,6.1,6.1,6.1c2.5,0,4.7-1.5,5.6-3.8
		l0.4-1h15.5c0.7,0,1.2-0.5,1.2-1.2v-10.8h9.1v24.8h-10.7l-0.4-1c-0.9-2.3-3.1-3.8-5.6-3.8c-3.3,0-6.1,2.7-6.1,6.1
		c0,3.3,2.7,6.1,6.1,6.1c2.5,0,4.7-1.5,5.6-3.8l0.4-1h12c0.7,0,1.2-0.5,1.2-1.2v-26h9.1v28.4l-1,0.4c-2.3,0.9-3.8,3.1-3.8,5.6
		c0,3.3,2.7,6.1,6.1,6.1c3.3,0,6.1-2.7,6.1-6.1c0-2.5-1.5-4.7-3.8-5.6l-1-0.4v-28.4h9.1v26c0,0.7,0.5,1.2,1.2,1.2h12l0.4,1
		c0.9,2.3,3.1,3.8,5.6,3.8c3.3,0,6.1-2.7,6.1-6.1c0-3.3-2.7-6.1-6.1-6.1c-2.5,0-4.7,1.5-5.6,3.8l-0.4,1h-10.7v-24.8h9.1v10.8
		c0,0.7,0.5,1.2,1.2,1.2h14.6l0.4,1c0.9,2.3,3.1,3.8,5.6,3.8c3.3,0,6.1-2.7,6.1-6.1s-2.7-6.1-6.1-6.1c-2.5,0-4.7,1.5-5.6,3.8l-0.4,1
		h-13.4v-9.5h7c9.3,0,16.8-7.6,16.8-16.8c0-6.9-4.3-13.2-10.8-15.7l-0.8-0.3l-0.2-0.9c-2-11.3-11.9-19.5-23.4-19.5
		c-2.2,0-4.4,0.3-6.5,0.9l-0.8,0.2l-0.7-0.6c-4.7-4.1-10.8-6.3-17-6.3c-14.3,0-26,11.6-26.2,25.9l0,1l-0.8,0.5
		c-5.5,2.9-8.9,8.6-8.9,14.8c0,9.3,7.6,16.8,16.8,16.8h7v9.5H248.8z M242.8,318.3c-2,0-3.7-1.6-3.7-3.7c0-2,1.6-3.7,3.7-3.7
		c2,0,3.7,1.6,3.7,3.7C246.5,316.7,244.8,318.3,242.8,318.3z M257.8,333.6c-2,0-3.7-1.6-3.7-3.7c0-2,1.6-3.7,3.7-3.7
		s3.7,1.6,3.7,3.7C261.5,332,259.8,333.6,257.8,333.6z M316.9,326.3c2,0,3.7,1.6,3.7,3.7c0,2-1.6,3.7-3.7,3.7c-2,0-3.7-1.6-3.7-3.7
		C313.2,327.9,314.8,326.3,316.9,326.3z M331,311c2,0,3.7,1.6,3.7,3.7c0,2-1.6,3.7-3.7,3.7c-2,0-3.7-1.6-3.7-3.7
		C327.3,312.6,329,311,331,311z M291,338.3c0,2-1.6,3.7-3.7,3.7c-2,0-3.7-1.6-3.7-3.7c0-2,1.6-3.7,3.7-3.7
		C289.4,334.7,291,336.3,291,338.3z M256.1,301.5c-3.9,0-7.5-1.5-10.2-4.2c-2.7-2.7-4.2-6.4-4.2-10.2c0-5.9,3.5-11.1,9-13.4
		c0.5-0.2,0.8-0.7,0.7-1.2c0-0.5,0-0.9,0-1.4c0-13.1,10.7-23.8,23.8-23.8c6.2,0,12.1,2.4,16.5,6.7c0.3,0.3,0.8,0.4,1.2,0.3
		c2.3-0.8,4.7-1.2,7.2-1.2c10.9,0,20.1,8.2,21.2,19c0.1,0.5,0.4,0.9,0.9,1c6.3,1.7,10.7,7.4,10.7,13.9c0,8-6.5,14.4-14.4,14.4H256.1
		z"/>
	<path class="st7" d="M359.6,353.2c-1.4-2.3-7.2-9.2-23.1,0l-30,17.5c-1.5,0.9-3,1.5-4.6,1.9l-3.7,1l1.9-3.3c0.4-0.8,0.8-1.6,1-2.5
		c1.3-5-1.6-10.2-6.8-11.8c-0.1,0-0.1,0-0.2,0c-8.7-1.6-17.3-4.7-24.2-7.2c-2.6-0.9-4.7-1.7-6.5-2.3c-7.2-2.3-13.7,0.6-19.2,3.8
		l-23.6,13.7l-2.3-4.1c-1-1.8-2.9-2.9-4.9-2.9c-0.9,0-1.9,0.2-2.8,0.7l-8.4,4.8c-1.3,0.7-2.2,1.9-2.6,3.4c-0.4,1.5-0.2,3,0.5,4.3
		l24.8,43.8c0.7,1.3,1.9,2.2,3.4,2.6c1.4,0.4,3,0.2,4.3-0.5l8.4-4.8c1.3-0.7,2.2-1.9,2.6-3.4c0.4-1.5,0.2-3-0.5-4.3l-3.8-6.7l6.9-4
		l39,10.5c2,0.5,4,0.8,5.9,0.8c4,0,7.7-1.1,11.2-3.2l54.5-33.6C361.1,364.8,362.4,357.9,359.6,353.2z M240.9,404.8
		c0.4,0.7,0.5,1.6,0.3,2.4c-0.2,0.8-0.8,1.5-1.5,1.9l-8.4,4.8c-0.5,0.3-1,0.4-1.6,0.4c-0.3,0-0.6,0-0.9-0.1
		c-0.8-0.2-1.5-0.8-1.9-1.5l-24.8-43.8c-0.4-0.7-0.5-1.6-0.3-2.4c0.2-0.8,0.8-1.5,1.5-1.9l8.4-4.8c0.5-0.3,1-0.4,1.6-0.4
		c1.2,0,2.2,0.6,2.8,1.6L240.9,404.8z M355.5,365.4l-54.5,33.6c-3.1,1.9-6.4,2.9-9.9,2.9c-1.7,0-3.5-0.2-5.4-0.7l-39.5-10.6
		c-0.3-0.1-0.6,0-0.9,0.1l-7.3,4.2L221.8,366l23.6-13.7c5.3-3.1,11.1-5.6,17.3-3.6c1.9,0.6,4.1,1.4,6.4,2.3c7,2.5,15.6,5.6,24.4,7.2
		l0.2,0.1c3.8,1.4,6,5.2,5,8.9c-1,3.6-3.8,5.5-7.8,5.3l-0.2,0c-5-1-9.4-2.2-14-3.5c-2-0.6-4.1-1.2-6.2-1.7c-0.6-0.2-1.3,0.2-1.5,0.9
		c-0.1,0.3,0,0.6,0.1,0.9c0.2,0.3,0.4,0.5,0.7,0.6c2.1,0.6,4.2,1.2,6.2,1.7l0.1,0c4.4,1.2,8.5,2.4,13.1,3.3l0.3,0.1
		c0.1,0,0.2,0.1,0.3,0.1c0.2,0,0.4,0,0.6,0.1l0.2,0c1,0.2,1.9,0.4,2.9,0.5c5.2,0.8,9.9,0,14.2-2.5l30-17.5
		c9.4-5.5,16.8-5.8,19.8-0.9C359.7,358,358.7,363.4,355.5,365.4z"/>
</g>
</svg>
