<?xml version="1.0" encoding="utf-8"?>
<!-- Generator: Adobe Illustrator 27.6.1, SVG Export Plug-In . SVG Version: 6.00 Build 0)  -->
<svg version="1.1" id="레이어_1" xmlns="http://www.w3.org/2000/svg" xmlns:xlink="http://www.w3.org/1999/xlink" x="0px"
	 y="0px" viewBox="0 0 411 461" style="enable-background:new 0 0 411 461;" xml:space="preserve">
<style type="text/css">
	.st0{fill-rule:evenodd;clip-rule:evenodd;fill:#E0DFE1;}
	.st1{fill-rule:evenodd;clip-rule:evenodd;fill:#F0F0F0;}
	.st2{fill-rule:evenodd;clip-rule:evenodd;fill:#6CE75A;}
	.st3{fill-rule:evenodd;clip-rule:evenodd;fill:#43A2FF;}
	.st4{fill-rule:evenodd;clip-rule:evenodd;fill:#FFD54F;}
	.st5{fill-rule:evenodd;clip-rule:evenodd;fill:#F1CB86;}
	.st6{fill-rule:evenodd;clip-rule:evenodd;fill:#FF6372;}
	.st7{fill-rule:evenodd;clip-rule:evenodd;fill:#333333;}
</style>
<g>
	<g>
		<g>
			<path class="st0" d="M302.6,373.3h-66.9v-68.5l16.2-16.2h50.7V373.3z"/>
			<path class="st1" d="M295.7,366.4h-66.9v-68.5l16.2-16.2h50.7V366.4z"/>
			<path class="st0" d="M228.9,297.9l16.2-16.2v16.2H228.9z"/>
		</g>
		<g>
			<path class="st2" d="M254.6,290.4h32c0.6,0,1,0.5,1,1v9.1c0,0.6-0.5,1-1,1h-32c-0.6,0-1-0.5-1-1v-9.1
				C253.5,290.9,254,290.4,254.6,290.4z"/>
			<path class="st3" d="M257.2,346.5h29.4c0.6,0,1,0.5,1,1v9.1c0,0.6-0.5,1-1,1h-29.4c-0.6,0-1-0.5-1-1v-9.1
				C256.1,347,256.6,346.5,257.2,346.5z"/>
			<path class="st4" d="M236.9,356.7v-20.3c0-0.6,0.5-1,1-1h9.1c0.6,0,1,0.5,1,1v20.3c0,0.6-0.5,1-1,1h-9
				C237.4,357.7,236.9,357.3,236.9,356.7z"/>
		</g>
		<g>
			<g>
				<ellipse class="st5" cx="327.8" cy="348.6" rx="11.1" ry="11.1"/>
				<path class="st5" d="M290.4,386.6l18,18c1,1,2.5,1,3.5,0l3.6-3.6c1-1,1-2.5,0-3.5l-17.7-17.7L290.4,386.6z"/>
				<path class="st5" d="M295.4,367.3c2.4,4.2,1,9.7-3.2,12.1l-10.9,6.3c-4.2,2.4-9.7,1-12.1-3.2s-1-9.7,3.2-12.1l10.9-6.3
					C287.5,361.6,293,363.1,295.4,367.3z"/>
				<path class="st5" d="M287.4,353.4l-12.7,7.3c-2.4,1.4-3.3,4.5-1.9,7l10.9,18.9c1.4,2.4,4.5,3.3,7,1.9l12.7-7.3l39.7-8.8
					l-28.3-49L287.4,353.4z"/>
			</g>
			<path class="st6" d="M309.6,322.2c2-1.1,4.5-0.5,5.6,1.5l27.8,48.1c1.1,2,0.5,4.5-1.5,5.6s-4.5,0.5-5.6-1.5l-27.8-48.1
				C307,325.9,307.7,323.4,309.6,322.2L309.6,322.2z"/>
			<path class="st6" d="M283.7,386.6c1.4,2.4,4.5,3.3,7,1.9l12.7-7.3c-5.3-9.2-10.7-18.5-16-27.7l-12.7,7.3c-2.4,1.4-3.3,4.5-1.9,7
				L283.7,386.6z"/>
		</g>
	</g>
	<path class="st7" d="M355.5,360.8l-8.5-4.9c-0.9-0.5-2.1-0.2-2.7,0.7c-0.5,0.9-0.2,2.1,0.7,2.7l8.5,4.9c0.3,0.2,0.6,0.3,1,0.3
		c0.7,0,1.3-0.4,1.7-1C356.7,362.5,356.4,361.3,355.5,360.8z M358.4,345.9H348c-1.1,0-2,0.9-2,2s0.9,2,2,2h10.4c1.1,0,2-0.9,2-2
		C360.4,346.7,359.5,345.9,358.4,345.9z M329.2,330.4c1.1,0,2-0.9,2-2v-9.9c0-1.1-0.9-2-2-2s-2,0.9-2,2v9.9
		C327.2,329.5,328.1,330.4,329.2,330.4L329.2,330.4z M343.6,339.5c0.4,0.6,1,1,1.7,1c0.3,0,0.7-0.1,1-0.3l9.2-5.3
		c0.9-0.5,1.3-1.7,0.7-2.7c-0.5-0.9-1.7-1.3-2.7-0.7l-9.2,5.3C343.4,337.3,343.1,338.5,343.6,339.5L343.6,339.5z M337.6,333.2
		c-0.9-0.5-1.3-1.7-0.7-2.7l5.2-9c0.5-0.9,1.7-1.3,2.7-0.7c0.9,0.5,1.3,1.7,0.7,2.7l-5.2,9c-0.4,0.6-1,1-1.7,1
		C338.2,333.4,337.9,333.4,337.6,333.2z M341.3,372.9c0.3,0.5,0.4,1.1,0.2,1.6c-0.1,0.6-0.5,1-1,1.3s-1.1,0.4-1.6,0.2
		c-0.6-0.2-1-0.5-1.3-1l-27.8-48.1c-0.3-0.5-0.4-1.1-0.2-1.6c0.2-0.6,0.5-1,1-1.3s1.1-0.4,1.6-0.2c0.6,0.2,1,0.5,1.3,1L341.3,372.9z
		 M331.8,372.9l-23-39.9l-19,20.7l14.6,25.3L331.8,372.9z M300.4,385.2l-5.5,3.2l14.9,14.9c0.1,0.1,0.3,0.1,0.4,0.1s0.2,0,0.4-0.1
		l3.6-3.6c0.1-0.1,0.1-0.3,0.1-0.4s0-0.2-0.1-0.4L300.4,385.2z M289.7,386.8c-1.5,0.9-3.4,0.4-4.3-1.2l-10.9-18.9
		c-0.9-1.5-0.4-3.4,1.2-4.3l11-6.4l14.1,24.3L289.7,386.8z M280,384.1l-6.9-11.9c-1.4,0.9-2.4,2.3-2.9,4c-0.5,1.8-0.2,3.6,0.7,5.2
		c0.9,1.6,2.4,2.7,4.2,3.2C276.8,385.1,278.5,384.9,280,384.1L280,384.1z M237.7,371.4h30.6c0.8-1,1.7-1.9,2.8-2.5l-0.1-0.1
		c-0.1-0.1-0.1-0.2-0.2-0.4h-33.2v3H237.7z M285.7,352.2v-3.7h-27.6v7.3h21.3L285.7,352.2z M230.8,364.4v-64.5H245c1.1,0,2-0.9,2-2
		v-14.2h46.8v59.8l-4.2,4.5v-1.6c0-1.1-0.9-2-2-2h-31.5c-1.1,0-2,0.9-2,2v11.2c0,1.1,0.9,2,2,2h16.7c-1.5,1.2-2.4,2.9-2.6,4.7h-39.4
		V364.4z M243,286.5l-9.4,9.4h8.3l1.2-1.2v-8.2H243z M297.7,290.7h3V336l-3,3.3V290.7z M326.7,339.6l8.4,14.5
		c1.2-1.6,1.8-3.5,1.8-5.5c0-5-4.1-9.1-9.1-9.1C327.4,339.5,327,339.5,326.7,339.6z M344.7,370.9c0.8,1.4,1,3.1,0.6,4.6
		c-0.4,1.6-1.4,2.9-2.8,3.7c-0.9,0.5-2,0.8-3,0.8c-0.5,0-1.1-0.1-1.6-0.2c-1.6-0.4-2.9-1.4-3.7-2.8l-0.3-0.5l-29.7,6.6l-0.3,0.1
		l13,13c0.8,0.8,1.3,1.9,1.3,3.1s-0.5,2.3-1.3,3.1l-3.6,3.6c-0.8,0.8-1.9,1.3-3.1,1.3s-2.3-0.5-3.1-1.3l-15.6-15.6
		c-1,0.5-2.1,0.8-3.2,0.8c-2.4,0-4.8-1.3-6.1-3.5l-0.1-0.1c-1.6,0.8-3.3,1.3-5.1,1.3c-0.9,0-1.9-0.1-2.8-0.4c-2.8-0.8-5.1-2.5-6.6-5
		c-1.4-2.5-1.8-5.4-1.1-8.1h-30.7c-1.1,0-2-0.9-2-2v-5h-5c-1.1,0-2-0.9-2-2v-68.5c0-0.5,0.2-1,0.6-1.4l16.2-16.1
		c0.4-0.4,0.9-0.6,1.4-0.6h50.7c1.1,0,2,0.9,2,2v5h5c1.1,0,2,0.9,2,2v43l2.1-2.3l-0.3-0.5c-0.8-1.4-1-3-0.6-4.6s1.4-2.9,2.8-3.7
		c1.4-0.8,3-1,4.6-0.6s2.9,1.4,3.7,2.8l7.6,13.2c1-0.3,2.1-0.4,3.2-0.4c7.2,0,13,5.8,13,13c0,3.4-1.3,6.7-3.7,9.1L344.7,370.9z
		 M246.2,337.3h-7.3v18.5h7.3V337.3z M250.1,335.3c0-1.1-0.9-2-2-2h-11.2c-1.1,0-2,0.9-2,2v22.4c0,1.1,0.9,2,2,2h11.2
		c1.1,0,2-0.9,2-2V335.3L250.1,335.3z M255.5,292.4v7.3h30.2v-7.3H255.5z M251.5,301.7c0,1.1,0.9,2,2,2h34.1c1.1,0,2-0.9,2-2v-11.2
		c0-1.1-0.9-2-2-2h-34.1c-1.1,0-2,0.9-2,2V301.7z M236.9,326.1h50.7c1.1,0,2-0.9,2-2s-0.9-2-2-2h-50.7c-1.1,0-2,0.9-2,2
		S235.8,326.1,236.9,326.1z M236.9,314.8h50.7c1.1,0,2-0.9,2-2s-0.9-2-2-2h-50.7c-1.1,0-2,0.9-2,2C235,314,235.8,314.8,236.9,314.8z
		 M289.6,335.3c0-1.1-0.9-2-2-2h-31.5c-1.1,0-2,0.9-2,2s0.9,2,2,2h31.5C288.7,337.3,289.6,336.4,289.6,335.3z"/>
</g>
</svg>
