<?xml version="1.0" encoding="utf-8"?>
<!-- Generator: Adobe Illustrator 27.6.1, SVG Export Plug-In . SVG Version: 6.00 Build 0)  -->
<svg version="1.1" id="레이어_1" xmlns="http://www.w3.org/2000/svg" xmlns:xlink="http://www.w3.org/1999/xlink" x="0px"
	 y="0px" viewBox="0 0 411 461" style="enable-background:new 0 0 411 461;" xml:space="preserve">
<style type="text/css">
	.st0{fill:#ECF1C5;}
	.st1{fill:#CAE0D2;}
	.st2{fill:#FF816E;}
	.st3{fill:#CBD0D8;}
	.st4{fill:#A9B1BC;}
	.st5{fill:#B3DC7F;}
	.st6{fill:#FBD670;}
	.st7{fill:#EFCFB3;}
	.st8{fill:#333333;}
</style>
<path class="st0" d="M337,257.7c10.2,18.3,35.9,9.1,44.1-6.3c5.2-9.8,6-19.9,5.8-26.3c-0.1-2.4-2.8-3.7-4.8-2.3
	c-6.1,4.3-16.9,7.2-29,9c-18.7,2.8-16.7,24.3-16.6,24.5c0,0,0,0,0,0L337,257.7z"/>
<path class="st1" d="M257.3,331.6c-21.5,38.8-75.7,19.2-93-13.3c-11-20.6-12.6-42.1-12.2-55.6c0.1-5.1,5.9-7.8,10.2-4.9
	c12.9,9,35.7,15.3,61.2,19c39.5,5.8,35.3,51.3,35.1,51.8c0,0,0,0,0,0.1L257.3,331.6z"/>
<g>
	<g>
		<path class="st2" d="M293.3,349.9l-3.1-2.7c-5.5-4.8-8.7-11.7-8.7-18.9v-0.9c0-6.9,2.8-13.2,7.3-17.7c4.5-4.5,10.8-7.3,17.7-7.3
			c6.6,0,13,2.6,17.7,7.3l0.5,0.5l0.5-0.5c2.3-2.3,5.1-4.2,8.1-5.4c3-1.2,6.2-1.9,9.6-1.9c13.8,0,25,11.2,25,25v0.9
			c0,7.3-3.2,14.2-8.7,18.9l-3.1,2.7l-31.4,27.2L293.3,349.9z"/>
	</g>
	<g>
		<path class="st3" d="M265.7,320.1v15.7h-7.9c-4.3,0-7.9-3.5-7.9-7.9c0-2.2,0.9-4.1,2.3-5.6c1.4-1.4,3.4-2.3,5.6-2.3H265.7z"/>
	</g>
	<g>
		<path class="st4" d="M281.5,327.4v0.9v13.2c0,1.1-0.5,2.2-1.2,2.9c-0.7,0.7-1.8,1.2-2.9,1.2c-1.1,0-2.2-0.4-2.9-1.2l-8.6-8.6
			v-15.7l8.6-8.6c0.8-0.8,1.8-1.2,2.9-1.2c2.3,0,4.2,1.9,4.2,4.2V327.4z"/>
	</g>
	<g>
		<path class="st5" d="M340.4,361.3v2.1l-15.7,13.6L309,363.5v-2.1c0-8.7,7-15.7,15.7-15.7S340.4,352.7,340.4,361.3z"/>
	</g>
	<g>
		<path class="st6" d="M320.6,331.1c-2.2,1.4-3.7,3.9-3.7,6.7c0,4.3,3.5,7.9,7.9,7.9c-8.7,0-15.7,7-15.7,15.7v2.1l-15.7-13.6v-8.2
			c0-8.7,7-15.7,15.7-15.7c2.3,0,4.5,0.5,6.4,1.4C317.4,328.2,319.1,329.5,320.6,331.1L320.6,331.1z"/>
	</g>
	<g>
		<path class="st6" d="M356.1,341.7v8.2l-15.7,13.6v-2.1c0-8.7-7-15.7-15.7-15.7c4.3,0,7.9-3.5,7.9-7.9c0-2.8-1.5-5.3-3.7-6.7
			c2.9-3.1,7-5.1,11.6-5.1c4.3,0,8.3,1.8,11.1,4.6C354.4,333.4,356.1,337.3,356.1,341.7z"/>
	</g>
	<g>
		<circle class="st7" cx="340.4" cy="318.1" r="7.9"/>
	</g>
	<g>
		<path class="st7" d="M328.8,331.1c2.2,1.4,3.7,3.9,3.7,6.7c0,4.3-3.5,7.9-7.9,7.9s-7.9-3.5-7.9-7.9c0-2.8,1.5-5.3,3.7-6.7
			c1.2-0.7,2.6-1.2,4.1-1.2C326.2,329.9,327.6,330.3,328.8,331.1z"/>
	</g>
	<g>
		<circle class="st7" cx="309" cy="318.1" r="7.9"/>
	</g>
</g>
<g>
	<path class="st8" d="M342.9,300.4c-6.8,0-13.2,2.5-18.2,7.1c-5-4.6-11.4-7.1-18.2-7.1c-9.8,0-18.4,5.3-23.1,13.2
		c-0.4-3-3-5.3-6.1-5.3c-1.6,0-3.2,0.7-4.3,1.8l-8,8h-7c-5.4,0-9.8,4.4-9.8,9.8c0,4.7,3.4,8.7,7.9,9.6v74.9c0,5.4,4.4,9.8,9.8,9.8
		s9.8-4.4,9.8-9.8v-13.8c0-1.1,0.9-2,2-2h9.8v-3.9h-9.8c-3.3,0-5.9,2.6-5.9,5.9v13.8c0,3.3-2.6,5.9-5.9,5.9c-3.3,0-5.9-2.6-5.9-5.9
		v-74.7h5.1l8,8c1.1,1.1,2.7,1.8,4.3,1.8c3.1,0,5.7-2.4,6.1-5.4c1.5,2.4,3.3,4.6,5.5,6.5l33.9,29.3v12.9c0,1.1-0.9,2-2,2h-5.9v3.9
		h5.9c3.3,0,5.9-2.6,5.9-5.9V378l33.9-29.3c5.9-5.1,9.3-12.6,9.3-20.4v-0.9C369.9,312.5,357.8,300.4,342.9,300.4z M252,327.9
		c0-3.3,2.6-5.9,5.9-5.9h5.9v11.8h-5.9C254.6,333.8,252,331.2,252,327.9z M279.5,341.5c0,1.2-1,2.2-2.2,2.2c-0.6,0-1.1-0.2-1.6-0.6
		l-8-8v-14.1l8-8c0.4-0.4,1-0.6,1.6-0.6c1.2,0,2.2,1,2.2,2.2v13v0.9V341.5z M303.1,318.1c0-3.3,2.6-5.9,5.9-5.9
		c3.3,0,5.9,2.6,5.9,5.9s-2.6,5.9-5.9,5.9C305.7,324,303.1,321.4,303.1,318.1z M334.5,318.1c0-3.3,2.6-5.9,5.9-5.9
		c3.3,0,5.9,2.6,5.9,5.9s-2.6,5.9-5.9,5.9C337.2,324,334.5,321.4,334.5,318.1z M354.2,349l-11.9,10.3c-0.8-6.5-5.1-12-10.9-14.3
		c1.9-1.8,3.2-4.3,3.2-7.2c0-2.6-1-5-2.7-6.8c2.4-2,5.5-3.1,8.6-3.1c7.6,0,13.8,6.2,13.8,13.8L354.2,349z M338.4,362.6l-13.8,11.9
		l-13.8-11.9v-1.2c0-7.6,6.2-13.8,13.8-13.8c7.6,0,13.8,6.2,13.8,13.8V362.6z M330.6,337.8c0,3.3-2.6,5.9-5.9,5.9
		c-3.3,0-5.9-2.6-5.9-5.9c0-3.3,2.6-5.9,5.9-5.9C327.9,331.9,330.6,334.5,330.6,337.8z M318.1,345c-5.9,2.4-10.2,7.8-10.9,14.3
		L295.2,349v-7.3c0-7.6,6.2-13.8,13.8-13.8c3.2,0,6.2,1.1,8.6,3.1c-1.7,1.8-2.7,4.1-2.7,6.8C314.9,340.6,316.1,343.2,318.1,345z
		 M366,328.3c0,6.6-2.9,12.9-7.9,17.3v-3.9c0-7.4-4.6-13.8-11-16.4c1.9-1.8,3.2-4.3,3.2-7.2c0-5.4-4.4-9.8-9.8-9.8
		c-5.4,0-9.8,4.4-9.8,9.8c0,2.9,1.2,5.4,3.2,7.2c-2,0.8-3.8,1.9-5.3,3.4c-1.2-0.5-2.4-0.8-3.8-0.8c-1.3,0-2.6,0.3-3.8,0.8
		c-1.6-1.4-3.4-2.6-5.3-3.4c2-1.8,3.2-4.4,3.2-7.2c0-5.4-4.4-9.8-9.8-9.8s-9.8,4.4-9.8,9.8c0,2.9,1.2,5.4,3.2,7.2
		c-6.5,2.6-11,9-11,16.4v3.9c-5-4.4-7.9-10.7-7.9-17.3v-0.9c0-12.7,10.3-23,23-23c6.2,0,11.9,2.4,16.3,6.8l1.9,1.9l1.9-1.9
		c4.4-4.4,10.1-6.7,16.3-6.7c12.7,0,23,10.3,23,23L366,328.3z"/>
	<path class="st8" d="M291.3,388.9h3.9v11.8h-3.9V388.9z"/>
	<path class="st8" d="M299.1,388.9h3.9v11.8h-3.9V388.9z"/>
	<path class="st8" d="M307,388.9h3.9v11.8H307V388.9z"/>
</g>
</svg>
