<?xml version="1.0" encoding="utf-8"?>
<!-- Generator: Adobe Illustrator 27.6.1, SVG Export Plug-In . SVG Version: 6.00 Build 0)  -->
<svg version="1.1" id="레이어_1" xmlns="http://www.w3.org/2000/svg" xmlns:xlink="http://www.w3.org/1999/xlink" x="0px"
	 y="0px" viewBox="0 0 411 461" style="enable-background:new 0 0 411 461;" xml:space="preserve">
<style type="text/css">
	.st0{fill-rule:evenodd;clip-rule:evenodd;fill:#5291D9;}
	.st1{fill-rule:evenodd;clip-rule:evenodd;fill:#FFB1A0;}
	.st2{fill-rule:evenodd;clip-rule:evenodd;fill:#F58220;}
	.st3{fill-rule:evenodd;clip-rule:evenodd;fill:#00D2FC;}
	.st4{fill:#333333;}
</style>
<g>
	<g>
		<g>
			<g>
				<path class="st0" d="M266.7,411.6c-15.1,1.3-17.3-9.1-17.9-17.6C263.1,394.5,269.6,402.9,266.7,411.6z"/>
				<path class="st0" d="M266.2,411.7c-5.5-14.4,5.1-17,13.1-25C282.6,403.7,278.6,410,266.2,411.7z"/>
			</g>
			<g>
				<path class="st1" d="M339,395.2h36.2v27.6H339V395.2z"/>
			</g>
			<g>
				<path class="st2" d="M264.6,328.3c6.5,0,11.7-5.3,11.7-11.7s-5.3-11.7-11.7-11.7c-6.5,0-11.7,5.3-11.7,11.7
					C252.9,323.1,258.2,328.3,264.6,328.3z"/>
			</g>
		</g>
		<path class="st3" d="M306.4,358.6l20.7-5.6c-7.3,13.8-16.7,29.1-25.3,43.5l8.6-30.5l-20.7,5.6c7.5-14.2,16.6-28.9,25.3-43.5
			L306.4,358.6z"/>
	</g>
</g>
<g>
	<path class="st4" d="M331.2,306.8c-6.4-2.3-13.2-3.5-20.1-3.5c-6.9,0-13.6,1.2-20.1,3.5c-1,0.4-1.6,1.5-1.2,2.5
		c0.3,0.8,1,1.3,1.9,1.3c0.2,0,0.4,0,0.7-0.1c6-2.2,12.3-3.2,18.7-3.2c6.4,0,12.7,1.1,18.7,3.2c1,0.4,2.2-0.2,2.5-1.2
		C332.8,308.3,332.3,307.2,331.2,306.8z"/>
	<path class="st4" d="M329.9,415.1c-6,2.2-12.3,3.2-18.7,3.2c-6.4,0-12.7-1.1-18.7-3.2c-1-0.4-2.2,0.2-2.5,1.2
		c-0.4,1,0.2,2.2,1.2,2.5c6.4,2.3,13.2,3.5,20.1,3.5c6.9,0,13.6-1.2,20.1-3.5c1-0.4,1.6-1.5,1.2-2.5
		C332.1,415.3,330.9,414.8,329.9,415.1z"/>
	<path class="st4" d="M280.2,384.9c-0.7-0.2-1.4,0-2,0.5c-1.8,1.7-3.7,3.2-5.6,4.7c-2.9,2.2-5.8,4.5-7.7,7.5
		c-3.6-3.3-9.2-5.2-15.9-5.5c-0.6,0-1.1,0.2-1.5,0.6c-0.4,0.4-0.6,1-0.5,1.5c0.4,5.7,1.5,12,6.2,16c2.8,2.4,6.4,3.6,11.3,3.6v17.6
		c0,1.1,0.8,2,1.9,2c1.1,0,1.9-0.9,1.9-2v-18c5.5-1,9.1-3,11.4-6.2c3.1-4.4,3.7-10.8,1.8-20.8C281.4,385.7,280.9,385.1,280.2,384.9
		L280.2,384.9z M251.2,396.2c5.4,0.6,9.7,2.4,12.1,5.3c-0.5,2.3-0.5,5,0.4,8.3c-3.4-0.1-6-1-8-2.6
		C252.8,404.6,251.7,400.4,251.2,396.2z M276.6,404.9c-1.7,2.3-4.5,3.8-8.8,4.6c-2.7-8.6,1.3-11.7,7.3-16.4c1-0.8,2.1-1.6,3.2-2.5
		C279.3,397.4,278.7,402,276.6,404.9L276.6,404.9z"/>
	<path class="st4" d="M375.5,393.4h-36.2c-1.1,0-1.9,0.8-1.9,1.9v27.6c0,1.1,0.8,2.1,1.9,2.1h36.2c1.1,0,1.9-1,1.9-2.1v-27.6
		C377.4,394.2,376.6,393.4,375.5,393.4z M373.6,407h-8.1v-9.9h8.1V407z M353.3,407v-9.9h8.1v9.9H353.3z M361.4,411v9.9h-8.1V411
		H361.4z M349.6,397.1v9.9h-8.4v-9.9H349.6z M341.1,411h8.4v9.9h-8.4V411z M365.5,420.9V411h8.1v9.9H365.5z"/>
	<path class="st4" d="M264.9,330.3c7.6,0,13.7-6.2,13.7-13.7c0-7.6-6.2-13.7-13.7-13.7c-7.6,0-13.7,6.2-13.7,13.7
		C251.2,324.1,257.3,330.3,264.9,330.3z M264.9,306.8c5.4,0,9.8,4.4,9.8,9.8c0,5.4-4.4,9.8-9.8,9.8c-5.4,0-9.8-4.4-9.8-9.8
		C255.1,311.2,259.5,306.8,264.9,306.8z"/>
	<path class="st4" d="M264.9,301c1.1,0,2-0.9,2-2v-5.8c0-1.1-0.9-2-2-2c-1.1,0-2,0.9-2,2v5.8C262.9,300.2,263.8,301,264.9,301z"/>
	<path class="st4" d="M249.4,316.5c0-1.1-0.9-2-2-2h-5.8c-1.1,0-2,0.9-2,2c0,1.1,0.9,2,2,2h5.8C248.5,318.6,249.4,317.6,249.4,316.5
		z"/>
	<path class="st4" d="M262.9,334v5.8c0,1.1,0.9,2,2,2c1.1,0,2-0.9,2-2V334c0-1.1-0.9-2-2-2C263.8,332.1,262.9,333,262.9,334z"/>
	<path class="st4" d="M280.4,316.5c0,1.1,0.9,2,2,2h5.8c1.1,0,2-0.9,2-2c0-1.1-0.9-2-2-2h-5.8C281.3,314.5,280.4,315.4,280.4,316.5z
		"/>
	<path class="st4" d="M277.3,306.2c0.5,0,1-0.2,1.4-0.6l4.1-4.1c0.8-0.8,0.8-2,0-2.8c-0.8-0.8-2-0.8-2.8,0l-4.1,4.1
		c-0.8,0.8-0.8,2,0,2.8C276.2,306,276.8,306.2,277.3,306.2L277.3,306.2z"/>
	<path class="st4" d="M251.1,305.6c0.4,0.4,0.9,0.6,1.4,0.6c0.5,0,1-0.2,1.4-0.6c0.8-0.8,0.8-2,0-2.8l-4.1-4.1c-0.8-0.8-2-0.8-2.8,0
		c-0.8,0.8-0.8,2,0,2.8L251.1,305.6z"/>
	<path class="st4" d="M249.8,334.4l4.1-4.1c0.8-0.8,0.8-2,0-2.8c-0.8-0.8-2-0.8-2.8,0l-4.1,4.1c-0.8,0.8-0.8,2,0,2.8
		c0.4,0.4,0.9,0.6,1.4,0.6S249.4,334.8,249.8,334.4z"/>
	<path class="st4" d="M278.7,327.5c-0.8-0.8-2-0.8-2.8,0c-0.8,0.8-0.8,2,0,2.8l4.1,4.1c0.4,0.4,0.9,0.6,1.4,0.6c0.5,0,1-0.2,1.4-0.6
		c0.8-0.8,0.8-2,0-2.8L278.7,327.5z"/>
	<path class="st4" d="M345.6,314.8h30.1c1.1,0,2-0.9,2-2c0-1.1-0.9-2-2-2h-30.1c-3.1,0-4.5-1.7-4.5-3.4c0-1.7,1.4-3.3,4.5-3.3
		c1.1,0,2-0.9,2-2c0-1.1-0.9-2-2-2c-5.6,0-8.5,3.7-8.5,7.4S340,314.8,345.6,314.8z"/>
	<path class="st4" d="M371.9,320.4c0-1.1-0.9-1.9-2-1.9h-18.5c-5.6,0-8.5,3.6-8.5,7.2s2.9,7.3,8.5,7.3c1.1,0,2-0.9,2-2
		c0-1.1-0.9-2-2-2c-3.1,0-4.5-1.7-4.5-3.4c0-1.7,1.4-3.4,4.5-3.4h18.5C371,322.3,371.9,321.5,371.9,320.4z"/>
	<path class="st4" d="M364.6,384.1c0.2,0.1,0.4,0.1,0.7,0.1c0.8,0,1.6-0.5,1.9-1.3c2.3-6.4,3.5-13.2,3.5-20.1
		c0-6.9-1.2-13.6-3.5-20.1c-0.4-1-1.5-1.6-2.5-1.2c-1,0.4-1.6,1.5-1.2,2.5c2.2,6,3.2,12.3,3.2,18.7c0,6.4-1.1,12.7-3.2,18.7
		C363.1,382.6,363.6,383.7,364.6,384.1z"/>
	<path class="st4" d="M257.7,341.6c-1-0.4-2.2,0.2-2.5,1.2c-2.3,6.4-3.5,13.2-3.5,20.1c0,6.9,1.2,13.6,3.5,20.1
		c0.3,0.8,1,1.3,1.9,1.3c0.2,0,0.4,0,0.7-0.1c1-0.4,1.6-1.5,1.2-2.5c-2.2-6-3.2-12.3-3.2-18.7c0-6.4,1.1-12.7,3.2-18.7
		C259.2,343.1,258.7,341.9,257.7,341.6z"/>
	<path class="st4" d="M290.5,373.5l17.4-4.7l-7.7,27.2c-0.3,1,0.2,2,1.1,2.3c0.3,0.1,0.5,0.2,0.8,0.2c0.7,0,1.3-0.3,1.7-1
		c1.6-2.6,3.1-5.2,4.7-7.9c7.2-12,14.6-24.4,20.6-35.8c0.4-0.7,0.3-1.5-0.2-2.2c-0.5-0.6-1.3-0.9-2.1-0.7l-17.4,4.7l7.7-27.2
		c0.3-1-0.2-2-1.1-2.3c-0.9-0.4-2,0-2.5,0.8c-1.6,2.7-3.3,5.5-4.9,8.2c-7,11.7-14.3,23.9-20.4,35.4c-0.4,0.7-0.3,1.5,0.2,2.2
		C288.9,373.5,289.7,373.7,290.5,373.5L290.5,373.5z M309.4,341.7l-4.6,16.3c-0.2,0.7,0,1.4,0.5,1.9c0.5,0.5,1.2,0.7,1.9,0.5
		l16.4-4.4c-4.7,8.7-10.1,17.8-15.5,26.8l4.6-16.3c0.2-0.7,0-1.4-0.5-1.9c-0.4-0.4-0.9-0.6-1.4-0.6c-0.2,0-0.3,0-0.5,0.1l-16.4,4.4
		C298.6,359.7,304,350.7,309.4,341.7L309.4,341.7z"/>
</g>
</svg>
