<?xml version="1.0" encoding="utf-8"?>
<!-- Generator: Adobe Illustrator 27.6.1, SVG Export Plug-In . SVG Version: 6.00 Build 0)  -->
<svg version="1.1" id="레이어_1" xmlns="http://www.w3.org/2000/svg" xmlns:xlink="http://www.w3.org/1999/xlink" x="0px"
	 y="0px" viewBox="0 0 411 461" style="enable-background:new 0 0 411 461;" xml:space="preserve">
<style type="text/css">
	.st0{fill:#FF826E;}
	.st1{fill:#969FAA;}
	.st2{fill:#69D6F4;}
	.st3{fill:#CF9E76;}
	.st4{fill:#D3A06C;}
	.st5{fill:#FCD770;}
	.st6{fill:#333333;}
</style>
<g>
	<g>
		<g>
			<path class="st0" d="M299,283.5h8.9v22.3H299V283.5z"/>
		</g>
		<g>
			<path class="st0" d="M352.5,274.6h8.9v49h-8.9V274.6z"/>
		</g>
		<g>
			<path class="st0" d="M316.8,292.4h8.9v13.4h-8.9V292.4z"/>
		</g>
		<g>
			<path class="st0" d="M334.7,283.5h8.9v22.3h-8.9V283.5z"/>
		</g>
		<g>
			<path class="st0" d="M229.9,254.5h49v8.9h-49V254.5z"/>
		</g>
		<g>
			<path class="st1" d="M339.1,314.7v6.7h-31.2v-6.7c0-1.2,1-2.2,2.2-2.2h26.7C338.1,312.5,339.1,313.5,339.1,314.7z"/>
		</g>
		<g>
			<circle class="st2" cx="267.8" cy="339.2" r="40.1"/>
		</g>
		<g>
			<path class="st3" d="M361.4,334.3v42.8c0,1.2-1,2.2-2.2,2.2h-71.3c-1.2,0-2.2-1-2.2-2.2v-1.9v-40.9h0
				c0.9,15.2,13.5,27.2,28.9,27.2h4.5v2.2c0,1.2,1,2.2,2.2,2.2h4.5c1.2,0,2.2-1,2.2-2.2v-2.2h4.5
				C347.9,361.5,360.5,349.5,361.4,334.3L361.4,334.3z"/>
		</g>
		<g>
			<path class="st4" d="M361.4,332.5v1.7h0c-0.9,15.2-13.5,27.2-28.9,27.2H328v-6.7c0-1.2-1-2.2-2.2-2.2h-4.5c-1.2,0-2.2,1-2.2,2.2
				v6.7h-4.5c-15.4,0-28-12-28.9-27.2h0v-1.7c0-1.2,1-2.2,2.2-2.2h19.1h1h31.2h20.1C360.4,330.3,361.4,331.3,361.4,332.5z"/>
		</g>
		<g>
			<path class="st5" d="M328,361.5v2.2c0,1.2-1,2.2-2.2,2.2h-4.5c-1.2,0-2.2-1-2.2-2.2v-2.2v-6.7c0-1.2,1-2.2,2.2-2.2h4.5
				c1.2,0,2.2,1,2.2,2.2V361.5z"/>
		</g>
	</g>
	<g>
		<path class="st6" d="M345.8,305.8v-24.5h-13.4v24.5h4.5v-20.1h4.5v20.1H345.8z"/>
		<path class="st6" d="M350.3,323.6h4.5v-46.8h4.5v46.8h4.5v-51.3h-13.4V323.6z"/>
		<path class="st6" d="M328,305.8v-15.6h-13.4v15.6h4.5v-11.1h4.5v11.1H328z"/>
		<path class="st6" d="M359.2,328.1h-17.8v-13.4c0-2.5-2-4.5-4.5-4.5h-26.7c-2.5,0-4.5,2-4.5,4.5v5.6c-5.5-11.2-15.7-19.3-27.8-22.2
			l18.9-12.3v20h4.5v-20.1h4.5v20.1h4.5v-24.5h-6.4l10.8-7v8.9l50.9-33.1l-9.5-6.3l-2.5,3.7l3.9,2.6l-38.3,24.9V266l-47.7,31
			c-1.2-0.1-2.4-0.2-3.6-0.2c-23.4,0-42.4,19-42.4,42.4s19,42.4,42.4,42.4c5.5,0,10.8-1,15.8-3.1c0.6,1.8,2.2,3.1,4.2,3.1h71.3
			c2.5,0,4.5-2,4.5-4.5v-44.6C363.7,330.1,361.7,328.1,359.2,328.1z M359.2,334.1L359.2,334.1c-0.9,14.1-12.6,25.1-26.7,25.1h-2.2
			v-4.5c0-2.5-2-4.5-4.5-4.5h-4.5c-2.5,0-4.5,2-4.5,4.5v4.5h-2.2c-14.1,0-25.9-11-26.7-25.1l0,0v-1.6h71.3V334.1z M325.8,363.7h-4.5
			v-8.9h4.5L325.8,363.7z M252.2,339.2c0-5.9,0.9-11.1,2.3-15.6h26.5c1.4,4.5,2.3,9.7,2.3,15.6s-0.9,11.1-2.3,15.6h-26.5
			C253.1,350.3,252.2,345.1,252.2,339.2z M267.8,302c2.5,2.3,7.9,8,11.7,17.1h-23.4C259.9,310,265.3,304.3,267.8,302z M304,328.1
			h-16.2c-0.4,0-0.7,0.1-1,0.1c-0.3-1.6-0.7-3.1-1.1-4.6h16.6C303,325.1,303.6,326.5,304,328.1z M279.5,359.3
			c-3.8,9.1-9.2,14.8-11.7,17.1c-2.5-2.3-7.9-8-11.7-17.1H279.5z M283.4,361.6v12.1c-3,1.4-6.2,2.3-9.5,2.9
			C276.9,373.3,280.6,368.3,283.4,361.6z M310.2,328.1v-4.5h26.7v4.5H310.2z M336.9,314.7v4.5h-26.7v-4.5H336.9z M300,319.2h-15.7
			c-3-7.9-7.2-13.7-10.4-17.3C284.8,303.6,294.3,309.9,300,319.2z M261.7,301.9c-3.3,3.6-7.4,9.4-10.4,17.3h-15.6
			C241.4,310.1,250.7,303.7,261.7,301.9z M233.3,323.6h16.5c-1.3,4.6-2.1,9.8-2.1,15.6s0.8,11,2.1,15.6h-16.5
			c-2.2-4.8-3.4-10-3.4-15.6S231.1,328.4,233.3,323.6z M235.7,359.3h15.6c2.9,7.9,7.1,13.7,10.4,17.3
			C250.7,374.8,241.4,368.3,235.7,359.3z M287.9,377.1v-28.5c5.5,9.1,15.5,15.1,26.7,15.1h2.2c0,2.5,2,4.5,4.5,4.5h4.5
			c2.5,0,4.5-2,4.5-4.5h2.2c11.3,0,21.3-6,26.8-15.1l0,28.5H287.9z"/>
		<path class="st6" d="M281.2,252.3h-53.5v13.4h53.5V252.3z M276.7,261.2h-44.6v-4.5h44.6V261.2z"/>
		<path class="st6" d="M227.7,270.1h13.4v4.5h-13.4V270.1z"/>
		<path class="st6" d="M227.7,287.9h13.4v4.5h-13.4V287.9z"/>
		<path class="st6" d="M245.5,270.1h35.7v4.5h-35.7V270.1z"/>
		<path class="st6" d="M227.7,279h53.5v4.5h-53.5V279z"/>
		<path class="st6" d="M245.5,287.9h4.5v4.5h-4.5V287.9z"/>
		<path class="st6" d="M254.4,287.9h4.5v4.5h-4.5V287.9z"/>
		<path class="st6" d="M263.3,287.9h4.5v4.5h-4.5V287.9z"/>
	</g>
</g>
</svg>
