<?xml version="1.0" encoding="utf-8"?>
<!-- Generator: Adobe Illustrator 27.6.1, SVG Export Plug-In . SVG Version: 6.00 Build 0)  -->
<svg version="1.1" id="레이어_1" xmlns="http://www.w3.org/2000/svg" xmlns:xlink="http://www.w3.org/1999/xlink" x="0px"
	 y="0px" viewBox="0 0 411 461" style="enable-background:new 0 0 411 461;" xml:space="preserve">
<style type="text/css">
	.st0{opacity:0.34;fill:#FFFFFF;}
	.st1{fill:#333333;}
	.st2{fill:#E6E7E9;}
	.st3{opacity:0.3;}
	.st4{fill:#FFFFFF;}
	.st5{fill:none;}
	.st6{fill:#40E4FD;}
	.st7{fill:#FBF585;}
	.st8{fill:#88EA73;}
</style>
<path class="st0" d="M337,257.7c10.2,18.3,35.9,9.1,44.1-6.3c5.2-9.8,6-19.9,5.8-26.3c-0.1-2.4-2.8-3.7-4.8-2.3
	c-6.1,4.3-16.9,7.2-29,9c-18.7,2.8-16.7,24.3-16.6,24.5l0,0L337,257.7z"/>
<path class="st0" d="M257.3,331.6c-21.5,38.8-75.7,19.2-93-13.3c-11-20.6-12.6-42.1-12.2-55.6c0.1-5.1,5.9-7.8,10.2-4.9
	c12.9,9,35.7,15.3,61.2,19c39.5,5.8,35.3,51.3,35.1,51.8c0,0,0,0,0,0.1L257.3,331.6z"/>
<g>
	<path class="st1" d="M373.8,401.2H248c-0.9,0-1.5,0.7-1.5,1.5c0,0.9,0.7,1.5,1.5,1.5h125.7c0.8,0,1.5-0.7,1.5-1.5
		C375.3,401.9,374.6,401.2,373.8,401.2z"/>
	<g>
		<path class="st2" d="M355.1,295.7v106.9h-88.5V295.7c0-6.1,5-11.1,11.1-11.1H344C350.2,284.6,355.1,289.6,355.1,295.7z"/>
	</g>
	<g class="st3">
		<path class="st4" d="M355.1,295.7v7.4c0-6.1-5-11.1-11.1-11.1h-66.3c-6.1,0-11.1,5-11.1,11.1v-7.4c0-6.1,5-11.1,11.1-11.1H344
			C350.2,284.6,355.1,289.6,355.1,295.7z"/>
	</g>
	<path class="st5" d="M344,288.4h-66.3c-4.1,0-7.4,3.3-7.4,7.4V399h81V295.7C351.4,291.7,348.1,288.4,344,288.4z"/>
	<path class="st1" d="M344,283.1h-66.3c-7,0-12.6,5.7-12.6,12.6v107c0,0.9,0.7,1.5,1.5,1.5h88.5c0.9,0,1.5-0.7,1.5-1.5v-107
		C356.7,288.8,351,283.1,344,283.1z M353.6,401.1h-85.4V295.7c0-5.3,4.3-9.6,9.6-9.6H344c5.3,0,9.6,4.3,9.6,9.6V401.1z"/>
	<g>
		<path class="st6" d="M289.8,353.6H332v49.1h-42.2V353.6z"/>
	</g>
	<g class="st3">
		<path class="st4" d="M299.5,353.6l-9.7,19.8v-11.9l3.9-7.9H299.5z"/>
	</g>
	<g class="st3">
		<path class="st4" d="M318.5,353.6l-24.2,49.1h-4.5v-21.5l13.6-27.5H318.5z"/>
	</g>
	<g class="st3">
		<path class="st4" d="M328.2,353.6L304,402.7h-5.8l24.2-49.1H328.2z"/>
	</g>
	<g class="st3">
		<path class="st4" d="M332,353.7v30.7l-9,18.3h-15.1L332,353.7z"/>
	</g>
	<path class="st1" d="M310.9,352.1c-0.9,0-1.5,0.7-1.5,1.5v49.1c0,0.9,0.7,1.5,1.5,1.5c0.9,0,1.5-0.7,1.5-1.5v-49.1
		C312.4,352.8,311.7,352.1,310.9,352.1z"/>
	<path class="st1" d="M337.9,352.1H284c-0.9,0-1.5,0.7-1.5,1.5c0,0.9,0.7,1.5,1.5,1.5h53.9c0.9,0,1.6-0.7,1.6-1.5
		S338.7,352.1,337.9,352.1z"/>
	<g>
		<path class="st6" d="M280.6,301.8h60.6v11.5h-60.6V301.8z"/>
	</g>
	<g>
		<path class="st6" d="M280.6,326.8h60.6v11.5h-60.6V326.8z"/>
	</g>
	<g class="st3">
		<path class="st4" d="M280.6,301.8h60.6v4.3h-60.6V301.8z"/>
	</g>
	<g class="st3">
		<path class="st4" d="M280.6,326.8h60.6v4.2h-60.6V326.8z"/>
	</g>
	<rect x="293.5" y="357.4" class="st5" width="34.7" height="41.6"/>
	<path class="st1" d="M332,352.1h-42.2c-0.9,0-1.5,0.7-1.5,1.5v49.1c0,0.9,0.7,1.5,1.5,1.5H332c0.8,0,1.5-0.7,1.5-1.5v-49.1
		C333.5,352.8,332.9,352.1,332,352.1z M330.5,401.1h-39.1v-46h39.1V401.1z"/>
	<rect x="284.3" y="305.5" class="st5" width="53.2" height="4"/>
	<path class="st1" d="M341.2,300.3h-60.6c-0.9,0-1.5,0.7-1.5,1.5v11.5c0,0.9,0.7,1.5,1.5,1.5h60.6c0.9,0,1.5-0.7,1.5-1.5v-11.5
		C342.7,301,342,300.3,341.2,300.3z M339.7,311.7h-57.5v-8.4h57.5V311.7z"/>
	<rect x="284.3" y="330.5" class="st5" width="53.2" height="4"/>
	<path class="st1" d="M341.2,325.3h-60.6c-0.9,0-1.5,0.7-1.5,1.5v11.5c0,0.9,0.7,1.5,1.5,1.5h60.6c0.9,0,1.5-0.7,1.5-1.5v-11.5
		C342.7,326,342,325.3,341.2,325.3z M339.7,336.7h-57.5v-8.4h57.5V336.7z"/>
	<g>
		<path class="st7" d="M332.3,274.2h-43.2c-1.5,0-2.8,1.2-2.8,2.8v10.4c0,1.5,1.3,2.8,2.8,2.8h43.2c1.5,0,2.8-1.2,2.8-2.8V277
			C335.1,275.5,333.8,274.2,332.3,274.2z"/>
	</g>
	<g class="st3">
		<path class="st4" d="M335.1,277v4.5c0-1.5-1.2-2.8-2.8-2.8h-43.2c-1.5,0-2.8,1.2-2.8,2.8V277c0-1.5,1.2-2.8,2.8-2.8h43.2
			C333.8,274.2,335.1,275.5,335.1,277z"/>
	</g>
	<polygon class="st5" points="290,286.3 331.2,286.5 331.4,278 290.1,278 	"/>
	<path class="st1" d="M332.3,272.7h-43.2c-2.4,0-4.3,1.9-4.3,4.3v10.4c0,2.4,1.9,4.3,4.3,4.3h43.2c2.4,0,4.3-1.9,4.3-4.3V277
		C336.6,274.6,334.7,272.7,332.3,272.7z M333.4,288.6l-45.6-0.2l0.2-12.7h44.8l0.8,0.8L333.4,288.6z"/>
	<g>
		<path class="st8" d="M374.2,376.5c0,5.1-4.6,9.2-10.3,9.2c-5.7,0-10.3-4.1-10.3-9.2c0-5.1,4.6-20.9,10.3-20.9
			C369.6,355.7,374.2,371.5,374.2,376.5L374.2,376.5z"/>
	</g>
	<path class="st1" d="M363.9,384.2c-0.9,0-1.5,0.7-1.5,1.5v17c0,0.9,0.7,1.5,1.5,1.5c0.9,0,1.5-0.7,1.5-1.5v-17
		C365.5,384.9,364.8,384.2,363.9,384.2z"/>
	<g>
		<path class="st8" d="M268.1,376.5c0,5.1-4.6,9.2-10.3,9.2c-5.7,0-10.3-4.1-10.3-9.2c0-5.1,4.6-20.9,10.3-20.9
			C263.5,355.7,268.1,371.5,268.1,376.5z"/>
	</g>
	<g class="st3">
		<path class="st4" d="M374.2,376.5c0,0.8-0.1,1.5-0.3,2.3c-1.1-6.6-5.2-17.7-9.9-17.7s-8.8,11.2-9.9,17.7c-0.2-0.7-0.3-1.5-0.3-2.3
			c0-5.1,4.6-20.8,10.3-20.8C369.6,355.7,374.2,371.5,374.2,376.5L374.2,376.5z"/>
	</g>
	<path class="st5" d="M363.9,359.4c-1.7,0.4-6.5,11.3-6.5,17.1c0,3,2.9,5.5,6.5,5.5c3.6,0,6.5-2.5,6.5-5.5
		C370.5,370.7,365.7,359.8,363.9,359.4z"/>
	<path class="st1" d="M363.9,354.1c-4.2,0-7.3,5.9-8.7,9.4c-2.1,5.1-3.1,10.8-3.1,13c0,5.9,5.3,10.7,11.8,10.7
		c6.5,0,11.8-4.8,11.8-10.7C375.8,371.9,371.3,354.1,363.9,354.1z M363.9,384.2c-4.8,0-8.7-3.4-8.7-7.7c0-5.5,4.7-19.3,8.7-19.3
		c0.7,0,1.4,0.3,2.1,1.1c2.9,2.9,6.6,13.2,6.6,18.3C372.7,380.8,368.7,384.2,363.9,384.2z"/>
	<polygon points="363.9,388.4 363.9,388.4 363.9,388.4 	"/>
	<path class="st5" d="M257.8,359.4c-1.7,0.4-6.6,11.3-6.6,17.1c0,3,2.9,5.5,6.6,5.5c3.6,0,6.5-2.5,6.5-5.5
		C264.4,370.7,259.6,359.8,257.8,359.4z"/>
	<path class="st5" d="M257.8,358.3c-2.8,0-7.6,12.6-7.6,18.2c0,3.6,3.4,6.6,7.6,6.6c4.2,0,7.6-2.9,7.6-6.6
		C265.5,370.9,260.6,358.3,257.8,358.3z"/>
	<path class="st1" d="M257.8,354.1c-4.2,0-7.3,5.9-8.7,9.4c-2.1,5.1-3.1,10.8-3.1,13c0,5.9,5.3,10.7,11.8,10.7
		c6.5,0,11.8-4.8,11.8-10.7C269.7,371.9,265.2,354.1,257.8,354.1z M257.8,384.2c-4.8,0-8.7-3.4-8.7-7.7c0-2.8,1.1-7.4,2.9-11.6
		c2.1-5.1,4-7.7,5.9-7.7c4,0,8.7,13.9,8.7,19.3C266.6,380.8,262.7,384.2,257.8,384.2z"/>
	<path class="st1" d="M257.8,384.2c-0.9,0-1.5,0.7-1.5,1.5v17c0,0.9,0.7,1.5,1.5,1.5c0.9,0,1.5-0.7,1.5-1.5v-17
		C259.4,384.9,258.7,384.2,257.8,384.2z"/>
</g>
</svg>
