<?xml version="1.0" encoding="utf-8"?>
<!-- Generator: Adobe Illustrator 27.6.1, SVG Export Plug-In . SVG Version: 6.00 Build 0)  -->
<svg version="1.1" id="레이어_1" xmlns="http://www.w3.org/2000/svg" xmlns:xlink="http://www.w3.org/1999/xlink" x="0px"
	 y="0px" viewBox="0 0 298.7 162.6" style="enable-background:new 0 0 298.7 162.6;" xml:space="preserve">
<style type="text/css">
	.st0{fill:#745030;}
	.st1{fill:#407440;}
	.st2{fill:#6A8441;}
	.st3{fill:#84A550;}
	.st4{fill:#8AB5E0;}
	.st5{fill:#4A4E49;}
	.st6{fill:#393C38;}
	.st7{fill:#D7D8D8;}
	.st8{fill:#F4F4F3;}
	.st9{fill:#4E2A16;}
	.st10{fill:#A37F61;}
	.st11{fill:#EBBF71;}
	.st12{fill:#D1A837;}
	.st13{fill:#E5DE9D;}
	.st14{fill:#D0C663;}
	.st15{fill:#FFFFFF;}
	.st16{fill:#ABBEE1;}
	.st17{fill:#9AB654;}
	.st18{fill:#59752E;}
	.st19{fill:#5E4027;}
	.st20{fill:#E79D25;}
	.st21{fill:none;stroke:#524833;stroke-width:0.75;stroke-linecap:round;stroke-miterlimit:10;}
	.st22{fill:#66CCFF;}
</style>
<g>
	<g>
		<path class="st0" d="M268.3,122.4c-1.9-0.2-5.8,12-7.5,11.5c-3.9-1.2-7.6-3.4-11.5-4.2c-1.5-0.3-2.2-1.3-2.4-2.5
			c-4.1-0.7-8.5-1.1-13.1-1.1H64.2c-2.3,0-4.5,0.1-6.7,0.3c-0.4,0.5-1,0.9-1.6,1.1c-0.8,0.3-1.6,0.7-2.4,1c-0.4,0.5-0.9,0.9-1.5,1.1
			c-1.1,0.4-2.2,0.8-3.3,1.1c-5.8,2.7-12-9.5-18.4-8.6c-0.2,0-1.2,2.4-1.4,2.4c-0.9,1.3-0.2,15.3-0.2,16.8c0,8.4,16,15.2,35.5,15.2
			h169.6c19.5,0,35.5-6.8,35.5-15.2C269.3,139.1,270.3,124.2,268.3,122.4z"/>
		<path class="st1" d="M269.2,128.5c-0.4-0.8-0.8-1.6-1.2-2.4c-1.6-0.9-3-2-4.3-3.3c-1.1,2.3-2.2,4.1-2.9,3.9
			c-3.9-1.2-7.6-3.4-11.5-4.2c-1.5-0.3-2.2-1.3-2.4-2.5c-4.1-0.7-8.5-1.1-13.1-1.1H64.2c-2.3,0-4.5,0.1-6.7,0.3
			c-0.4,0.5-1,0.9-1.6,1.1c-0.8,0.3-1.6,0.7-2.4,1c-0.4,0.5-0.9,0.9-1.5,1.1c-1,0.4-2,0.7-3,1c0.3,1.7-0.8,3.5-2.4,4
			c-0.6,1.9-2.9,3.2-4.9,2c-1.2-0.8-2.3-1.6-3.5-2.4c-0.9,1.3-3.1,2.1-4.5,1c-1-0.8-2.1-1.5-3.1-2.2c-0.4,0.8-1.1,1.4-2.1,1.7
			c0.1,3.2,0.2,6,0.2,6.6c0,8.4,16,15.2,35.5,15.2h169.6c19.5,0,35.5-6.8,35.5-15.2c0-0.7,0.1-2.7,0.2-5.1
			C269.3,128.8,269.2,128.7,269.2,128.5z"/>
		<path class="st2" d="M269.2,126.3c-0.4-0.8-0.8-1.6-1.2-2.4c-1.6-0.9-3-2-4.3-3.3c-1.1,2.3-2.2,4.1-2.9,3.9
			c-3.9-1.2-7.6-3.4-11.5-4.2c-1.5-0.3-2.2-1.3-2.4-2.5c-4.1-0.7-8.5-1.1-13.1-1.1H64.2c-2.3,0-4.5,0.1-6.7,0.3
			c-0.4,0.5-1,0.9-1.6,1.1c-0.8,0.3-1.6,0.7-2.4,1c-0.4,0.5-0.9,0.9-1.5,1.1c-1,0.4-2,0.7-3,1c0.3,1.7-0.8,3.5-2.4,4
			c-0.6,1.9-2.9,3.2-4.9,2c-1.2-0.8-2.3-1.6-3.5-2.4c-0.9,1.3-3.1,2.1-4.5,1c-1-0.8-2.1-1.5-3.1-2.2c-0.4,0.8-1.1,1.4-2.1,1.7
			c0.1,3.2,0.2,6,0.2,6.6c0,8.4,16,15.2,35.5,15.2h169.6c19.5,0,35.5-6.8,35.5-15.2c0-0.7,0.1-2.7,0.2-5.1
			C269.3,126.7,269.2,126.5,269.2,126.3z"/>
		<path class="st3" d="M265.5,118.6c-1.9-0.2-2.9,0.1-4.7-0.5c-3.9-1.2-7.6-3.4-11.5-4.2c-1.5-0.3-2.2-1.3-2.4-2.5
			c-4.1-0.7-8.5-1.1-13.1-1.1H64.2c-2.3,0-4.5,0.1-6.7,0.3c-0.4,0.5-1,0.9-1.6,1.1c-0.8,0.3-1.6,0.7-2.4,1c-0.4,0.5-0.9,0.9-1.5,1.1
			c-1.1,0.4-2.2,0.8-3.3,1.1c-5.8,2.7-9.6,5.1-16,6c-0.2,0,2,0.2-0.2,0.3c0,0,0.7,0.7-2.2,0.8c-0.9,1.3-1.6,2-1.6,3.4
			c0,8.4,16,15.2,35.5,15.2h169.6c19.5,0,35.5-6.8,35.5-15.2C269.3,123.4,267.4,120.5,265.5,118.6z"/>
		<path class="st4" d="M198.8,126.9c0-0.7-3.9-1.3-9.3-1.6c0.6-0.3,0.9-0.5,0.9-0.8c0-1.6-11.2-2.9-24.8-2.9
			c-13.6,0-24.8,1.3-24.8,2.9c0,0.4,0.8,0.8,2.2,1.2c-17,0.3-30.1,2.3-30.1,4.7c0,2.6,15.9,4.7,35.3,4.7h9.4
			c19.4,0,35.3-2.1,35.3-4.7c0-0.7-1.1-1.3-3.1-1.9C195,128.2,198.8,127.6,198.8,126.9z"/>
		<g>
			<polygon class="st5" points="146.5,42.9 93.8,112.4 201.4,112.4 			"/>
			<polygon class="st6" points="146.5,42.9 93.8,112.4 128.9,112.4 			"/>
			<polygon class="st7" points="146.5,42.9 140.2,67.6 138.1,58.2 134.8,63 133.5,59.9 			"/>
			<polygon class="st8" points="158.9,58.5 158.9,64.7 153.8,61.6 150.3,69.8 146.5,60.6 140.2,67.6 140.2,67.6 146.5,42.9 			"/>
			<polygon class="st5" points="207.4,59.3 167.2,112.4 249.4,112.4 			"/>
			<polygon class="st6" points="207.4,59.3 167.2,112.4 194,112.4 			"/>
			<polygon class="st7" points="207.4,59.3 202.6,78.2 201,71 198.5,74.6 197.5,72.3 			"/>
			<polygon class="st8" points="216.9,71.2 216.9,76 213,73.6 210.3,79.8 207.4,72.8 202.6,78.2 202.6,78.2 207.4,59.3 			"/>
			<polygon class="st5" points="84.2,70.1 52.1,112.4 117.6,112.4 			"/>
			<polygon class="st6" points="84.2,70.1 52.1,112.4 73.5,112.4 			"/>
			<polygon class="st7" points="84.2,70.1 80.4,85.2 79.1,79.4 77.1,82.3 76.3,80.4 			"/>
			<polygon class="st8" points="91.8,79.6 91.8,83.4 88.7,81.5 86.5,86.4 84.2,80.9 80.4,85.2 80.4,85.2 84.2,70.1 			"/>
		</g>
		<g>
			<path class="st9" d="M186.6,115.3c0,0.1-0.1,0.2-0.2,0.2l0,0c-0.1,0-0.2-0.1-0.2-0.2v-2.6c0-0.1,0.1-0.2,0.2-0.2l0,0
				c0.1,0,0.2,0.1,0.2,0.2V115.3z"/>
			<polygon class="st1" points="189.1,109.6 187.1,106.2 188.7,106.2 186.3,102.2 184,106.2 185.5,106.2 183.5,109.6 185.4,109.6 
				183.5,112.9 189.1,112.9 187.2,109.6 			"/>
		</g>
		<g>
			<path class="st9" d="M195.1,117.3c0,0.1-0.1,0.2-0.2,0.2l0,0c-0.1,0-0.2-0.1-0.2-0.2v-2.6c0-0.1,0.1-0.2,0.2-0.2l0,0
				c0.1,0,0.2,0.1,0.2,0.2V117.3z"/>
			<polygon class="st1" points="197.6,111.7 195.6,108.2 197.2,108.2 194.8,104.2 192.5,108.2 194,108.2 192,111.7 193.9,111.7 
				192,114.9 197.6,114.9 195.7,111.7 			"/>
		</g>
		<g>
			<path class="st9" d="M154.9,117.3c0,0.1-0.1,0.2-0.2,0.2l0,0c-0.1,0-0.2-0.1-0.2-0.2v-2.6c0-0.1,0.1-0.2,0.2-0.2l0,0
				c0.1,0,0.2,0.1,0.2,0.2V117.3z"/>
			<polygon class="st1" points="157.4,111.7 155.4,108.2 157,108.2 154.6,104.2 152.3,108.2 153.8,108.2 151.8,111.7 153.7,111.7 
				151.8,114.9 157.4,114.9 155.5,111.7 			"/>
		</g>
		<g>
			<path class="st9" d="M171.6,117.3c0,0.1-0.1,0.2-0.2,0.2l0,0c-0.1,0-0.2-0.1-0.2-0.2v-2.6c0-0.1,0.1-0.2,0.2-0.2l0,0
				c0.1,0,0.2,0.1,0.2,0.2V117.3z"/>
			<polygon class="st1" points="174.1,111.7 172.1,108.2 173.7,108.2 171.3,104.2 169,108.2 170.5,108.2 168.5,111.7 170.4,111.7 
				168.5,114.9 174.1,114.9 172.2,111.7 			"/>
		</g>
		<g>
			<path class="st9" d="M179,113.5c0,0.1-0.1,0.2-0.2,0.2l0,0c-0.1,0-0.2-0.1-0.2-0.2v-2.6c0-0.1,0.1-0.2,0.2-0.2l0,0
				c0.1,0,0.2,0.1,0.2,0.2V113.5z"/>
			<polygon class="st1" points="181.5,107.8 179.6,104.4 181.1,104.4 178.7,100.3 176.4,104.4 177.9,104.4 176,107.8 177.8,107.8 
				176,111 181.5,111 179.7,107.8 			"/>
		</g>
		<g>
			<path class="st9" d="M162.6,113.5c0,0.1-0.1,0.2-0.2,0.2l0,0c-0.1,0-0.2-0.1-0.2-0.2v-2.6c0-0.1,0.1-0.2,0.2-0.2l0,0
				c0.1,0,0.2,0.1,0.2,0.2V113.5z"/>
			<polygon class="st1" points="165.2,107.8 163.2,104.4 164.7,104.4 162.4,100.3 160,104.4 161.6,104.4 159.6,107.8 161.5,107.8 
				159.6,111 165.2,111 163.3,107.8 			"/>
		</g>
		<g>
			<path class="st9" d="M202.9,113.5c0,0.1-0.1,0.2-0.2,0.2l0,0c-0.1,0-0.2-0.1-0.2-0.2v-2.6c0-0.1,0.1-0.2,0.2-0.2l0,0
				c0.1,0,0.2,0.1,0.2,0.2V113.5z"/>
			<polygon class="st1" points="205.4,107.8 203.5,104.4 205,104.4 202.6,100.3 200.3,104.4 201.8,104.4 199.9,107.8 201.7,107.8 
				199.9,111 205.4,111 203.6,107.8 			"/>
		</g>
		<g>
			<path class="st9" d="M146.7,113.5c0,0.1-0.1,0.2-0.2,0.2l0,0c-0.1,0-0.2-0.1-0.2-0.2v-2.6c0-0.1,0.1-0.2,0.2-0.2l0,0
				c0.1,0,0.2,0.1,0.2,0.2V113.5z"/>
			<polygon class="st1" points="149.2,107.8 147.3,104.4 148.8,104.4 146.5,100.3 144.1,104.4 145.7,104.4 143.7,107.8 145.5,107.8 
				143.7,111 149.2,111 147.4,107.8 			"/>
		</g>
		<g>
			<g>
				<polygon class="st10" points="99.2,121 99.2,135.2 100.3,135.2 100.3,119.9 				"/>
				<polygon class="st0" points="100.3,135.2 101.3,135.2 101.3,121 100.3,119.9 				"/>
			</g>
			<g>
				<polygon class="st11" points="105.4,127.4 99.2,127.4 99.2,128.5 106.5,128.5 				"/>
				<polygon class="st12" points="99.2,128.5 99.2,129.6 105.4,129.6 106.5,128.5 				"/>
			</g>
			<g>
				<polygon class="st11" points="105.4,122 99.2,122 99.2,123.1 106.5,123.1 				"/>
				<polygon class="st12" points="99.2,123.1 99.2,124.2 105.4,124.2 106.5,123.1 				"/>
			</g>
			<g>
				<polygon class="st13" points="95.1,124.6 101.3,124.6 101.3,125.7 94,125.7 				"/>
				<polygon class="st14" points="101.3,125.7 101.3,126.8 95.1,126.8 94,125.7 				"/>
			</g>
			<circle class="st15" cx="100.3" cy="123.1" r="0.4"/>
			<circle class="st15" cx="100.3" cy="125.7" r="0.4"/>
			<circle class="st15" cx="100.3" cy="128.5" r="0.4"/>
		</g>
		<path class="st16" d="M156.7,130.2h-13.4c-0.2,0-0.3-0.2-0.3-0.3l0,0c0-0.2,0.2-0.3,0.3-0.3h13.4c0.2,0,0.3,0.2,0.3,0.3l0,0
			C157.1,130.1,156.9,130.2,156.7,130.2z"/>
		<path class="st16" d="M159,128.7h-10.7c-0.2,0-0.3-0.2-0.3-0.3l0,0c0-0.2,0.2-0.3,0.3-0.3H159c0.2,0,0.3,0.2,0.3,0.3l0,0
			C159.4,128.6,159.2,128.7,159,128.7z"/>
		<path class="st16" d="M163,127.4h-6.2c-0.2,0-0.3-0.2-0.3-0.3l0,0c0-0.2,0.2-0.3,0.3-0.3h6.2c0.2,0,0.3,0.2,0.3,0.3l0,0
			C163.3,127.2,163.1,127.4,163,127.4z"/>
		<polygon class="st17" points="100.3,102 70.5,118.6 130,118.6 		"/>
		<polygon class="st18" points="100.3,102 70.5,118.6 90,118.6 		"/>
		<polygon class="st17" points="235.8,102 206.1,118.6 265.5,118.6 		"/>
		<polygon class="st18" points="235.8,102 206.1,118.6 225.5,118.6 		"/>
		<polygon class="st17" points="63.5,103.5 30.3,122.1 96.7,122.1 		"/>
		<polygon class="st18" points="63.5,103.5 30.3,122.1 52,122.1 		"/>
		<g>
			<polygon class="st13" points="59.4,132.7 74.4,132.7 74.4,115.2 			"/>
			<path class="st0" d="M74.4,121.3l-7.9,5.4c0,0,2,2.2,1.7,6.1L74.4,121.3z"/>
			<polygon class="st11" points="74.4,121.3 74.4,132.7 68.2,132.7 			"/>
			<rect x="73.7" y="123.6" class="st19" width="0.7" height="0.4"/>
			<rect x="73.7" y="124.5" class="st19" width="0.7" height="0.4"/>
			<rect x="73.7" y="125.4" class="st19" width="0.7" height="0.4"/>
			<rect x="73.7" y="126.2" class="st19" width="0.7" height="0.4"/>
			<rect x="73.7" y="127.1" class="st19" width="0.7" height="0.4"/>
			<rect x="73.7" y="128" class="st19" width="0.7" height="0.4"/>
			<rect x="73.7" y="128.9" class="st19" width="0.7" height="0.4"/>
			<rect x="73.7" y="129.8" class="st19" width="0.7" height="0.4"/>
			<rect x="73.7" y="130.7" class="st19" width="0.7" height="0.4"/>
			<rect x="73.7" y="131.6" class="st19" width="0.7" height="0.4"/>
			<polygon class="st0" points="89.3,132.7 74.4,132.7 74.4,115.2 			"/>
			<path class="st13" d="M74.4,121.3l7.9,5.4c0,0-2,2.2-1.7,6.1L74.4,121.3z"/>
			<polygon class="st20" points="74.4,121.3 74.4,132.7 80.6,132.7 			"/>
			<rect x="74.4" y="123.6" class="st19" width="0.7" height="0.4"/>
			<rect x="74.4" y="124.5" class="st19" width="0.7" height="0.4"/>
			<rect x="74.4" y="125.4" class="st19" width="0.7" height="0.4"/>
			<rect x="74.4" y="126.2" class="st19" width="0.7" height="0.4"/>
			<rect x="74.4" y="127.1" class="st19" width="0.7" height="0.4"/>
			<rect x="74.4" y="128" class="st19" width="0.7" height="0.4"/>
			<rect x="74.4" y="128.9" class="st19" width="0.7" height="0.4"/>
			<rect x="74.4" y="129.8" class="st19" width="0.7" height="0.4"/>
			<rect x="74.4" y="130.7" class="st19" width="0.7" height="0.4"/>
			<rect x="74.4" y="131.6" class="st19" width="0.7" height="0.4"/>
		</g>
		<line class="st21" x1="74.3" y1="115.2" x2="72.9" y2="114"/>
		<line class="st21" x1="74.4" y1="115.2" x2="75.8" y2="114"/>
		<line class="st21" x1="74.4" y1="115.2" x2="74.4" y2="113.1"/>
		<path class="st0" d="M245.5,116h0.5c0.2,0,0.3-0.1,0.3-0.3s-0.1-0.3-0.3-0.3h-0.5c-0.3,0-0.6,0.1-0.7,0.4l-0.6,0.9l-0.5-0.8
			c-0.1-0.1-0.2-0.2-0.4-0.1c-0.1,0.1-0.2,0.2-0.1,0.4l0.6,1.1l-0.4,0.5c-0.1,0-0.2,0-0.3,0c0,0-0.1,0-0.1,0l-1.2-1.6l0.5-0.7
			c0.1-0.1,0-0.3-0.1-0.4c-0.1-0.1-0.3,0-0.4,0.1l-0.4,0.6c-0.3-0.2-0.6-0.3-1-0.2l-0.5,0.1l-0.6-0.8c-0.1-0.1-0.3-0.2-0.4-0.1
			c-0.1,0.1-0.2,0.3-0.1,0.4l0.5,0.7l-0.8,0.2c-0.1,0-0.2,0.2-0.2,0.3c0,0.1,0.2,0.2,0.3,0.2l1.9-0.6c0.2-0.1,0.4,0,0.6,0.2l0.3,0.4
			l-1,0.4c-0.1,0.1-0.2,0.2-0.2,0.4c0,0.1,0.2,0.2,0.3,0.2c0,0,0.1,0,0.1,0l1.1-0.5l0.7,1l-0.2,0.5l-2.1,3.1h-5.9
			c-0.7,0-1.2,0.3-1.6,0.7c-0.7-0.3-0.9-0.7-1-1c0,0,0-0.1-0.1-0.1c0,0-0.1,0-0.1,0.1c-0.5,1.3,0.2,1.8,0.6,2c0,0.2-0.1,0.3-0.1,0.5
			c0,0.7,0.3,1.2,0.8,1.7l-0.8,1.3l0,0c-0.1,0.1-0.1,0.2-0.1,0.3l0.1,3.7c0,0.2,0.1,0.3,0.3,0.3c0.2,0,0.4-0.1,0.4-0.3l0.4-2.8
			l0.7,2.8c0,0.2,0.2,0.3,0.4,0.3c0.2,0,0.3-0.2,0.3-0.4l-0.2-3.4l0.9-1.3h3.4l0.6,1.3l-0.6,3.4c0,0.2,0.1,0.3,0.2,0.4
			c0.2,0.1,0.4,0,0.5-0.2l1.2-3.2l0.6,3.1c0,0.2,0.2,0.3,0.4,0.3c0.2,0,0.3-0.2,0.3-0.4l-0.4-5.5l2.1-4.8l1.3,0.6
			c0.2,0.1,0.4,0.1,0.6,0c0.2-0.1,0.3-0.2,0.4-0.4l0.1-0.2c0.1-0.3,0.1-0.7-0.2-0.9l-2-1.7l0.7-1.1l0.3,0.2c0.1,0,0.1,0.1,0.2,0.1
			c0.1,0,0.2,0,0.2-0.1c0.1-0.1,0.1-0.3-0.1-0.4l-0.3-0.3l0.3-0.4C245.3,116,245.4,116,245.5,116z"/>
	</g>
	<g>
		<path class="st22" d="M116.8,12.7h-3.4c0.6-0.3,1-1,1-1.7c0-1.1-0.9-2-2-2h-1.8c0.1-0.3,0.2-0.6,0.2-0.9c0-1.1-0.9-2-2-2H94
			c-1.1,0-2,0.9-2,2c0,0.3,0.1,0.6,0.2,0.9H80.6c-1.1,0-2,0.9-2,2c0,0.7,0.4,1.4,1,1.7h-3.4c-1.1,0-2,0.9-2,2s0.9,2,2,2h40.4
			c1.1,0,2-0.9,2-2S117.9,12.7,116.8,12.7z"/>
		<path class="st22" d="M198.8,27.3H196c0.6-0.3,1-1,1-1.7c0-1.1-0.9-2-2-2h-2.6c0.2-0.3,0.3-0.7,0.3-1c0-1.1-0.9-2-2-2h-2.3
			c0.3-0.4,0.5-0.8,0.5-1.4v0c0-1.1-0.9-2-2-2h-7.5c-1.1,0-2,0.9-2,2v0c0,0.5,0.2,1,0.5,1.4h-2.3c-1.1,0-2,0.9-2,2
			c0,0.4,0.1,0.7,0.3,1H168c-1.1,0-2,0.9-2,2c0,0.7,0.4,1.4,1,1.7h-2.8c-1.1,0-2,0.9-2,2c0,1.1,0.9,2,2,2h34.6c1.1,0,2-0.9,2-2
			C200.8,28.2,199.9,27.3,198.8,27.3z"/>
	</g>
</g>
</svg>
