<?xml version="1.0" encoding="utf-8"?>
<!-- Generator: Adobe Illustrator 27.5.0, SVG Export Plug-In . SVG Version: 6.00 Build 0)  -->
<svg version="1.1" id="레이어_1" xmlns="http://www.w3.org/2000/svg" xmlns:xlink="http://www.w3.org/1999/xlink" x="0px"
	 y="0px" viewBox="0 0 100 100" style="enable-background:new 0 0 100 100;" xml:space="preserve">
<style type="text/css">
	.st0{fill:#FFFFFF;}
	.st1{fill:#FF0000;}
</style>
<g>
	<path class="st0" d="M34.8,16.6c-2.2,0-3.9,1.7-3.9,3.9v59.1c0,2.2,1.7,3.9,3.9,3.9h38.9c2.2,0,3.9-1.7,3.9-3.9V33.4L60.8,16.6
		H34.8z M34.8,16.6"/>
	<path class="st1" d="M62.2,14.6l-26.6,0c-3.9,0-7,3.2-7,7v11.2h-5.8c-1.2,0-2.1,0.9-2.1,2.1v16.6c0,1.2,0.9,2.1,2.1,2.1h5.8v24.8
		c0,3.9,3.2,7,7,7H73c3.9,0,7-3.2,7-7V32.5c0-0.4-0.2-0.9-0.5-1.2L63.3,15.1c-0.1-0.1-0.1-0.1-0.2-0.2c0,0,0,0,0,0
		c-0.1-0.1-0.3-0.2-0.5-0.2c0,0,0,0,0,0C62.5,14.6,62.3,14.6,62.2,14.6L62.2,14.6z M35.5,17.9h25v14.6c0,0.9,0.7,1.6,1.6,1.6h14.6
		v44.5c0,2.1-1.6,3.8-3.8,3.8H35.5c-2.1,0-3.8-1.6-3.8-3.8V53.7h21.5c1.2,0,2.1-0.9,2.1-2.1V35c0-1.2-0.9-2.1-2.1-2.1H31.8V21.6
		C31.8,19.5,33.4,17.9,35.5,17.9L35.5,17.9z M63.8,20.2l10.6,10.6H63.8V20.2z M38.4,57.8v3h31.6v-3H38.4z M38.4,64.8v3h31.6v-3H38.4
		z M38.4,71.8v3h31.6v-3H38.4z M38.4,71.8"/>
	<path class="st0" d="M25.3,48.1v-9.7h3.1c1.2,0,2,0,2.3,0.1c0.6,0.1,1,0.5,1.4,0.9c0.4,0.5,0.6,1.1,0.6,1.9c0,0.6-0.1,1.1-0.3,1.5
		c-0.2,0.4-0.5,0.7-0.8,1c-0.3,0.2-0.7,0.4-1,0.5c-0.5,0.1-1.1,0.1-2,0.1h-1.3v3.6H25.3z M27.2,40.1v2.7h1.1c0.8,0,1.3-0.1,1.5-0.2
		c0.3-0.1,0.5-0.3,0.6-0.5c0.1-0.2,0.2-0.5,0.2-0.8c0-0.4-0.1-0.6-0.3-0.9c-0.2-0.2-0.5-0.4-0.8-0.4c-0.2,0-0.7-0.1-1.4-0.1H27.2z
		 M27.2,40.1"/>
	<path class="st0" d="M34.3,38.5h3.6c0.8,0,1.4,0.1,1.8,0.2c0.6,0.2,1.1,0.5,1.5,0.9c0.4,0.4,0.7,0.9,0.9,1.6
		c0.2,0.6,0.3,1.4,0.3,2.3c0,0.8-0.1,1.5-0.3,2.1c-0.2,0.7-0.6,1.3-1,1.7c-0.3,0.3-0.8,0.6-1.4,0.8c-0.4,0.1-1,0.2-1.7,0.2h-3.7
		V38.5z M36.2,40.1v6.4h1.5c0.5,0,0.9,0,1.2-0.1c0.3-0.1,0.6-0.2,0.8-0.4c0.2-0.2,0.4-0.5,0.5-0.9c0.1-0.4,0.2-1,0.2-1.8
		c0-0.7-0.1-1.3-0.2-1.7c-0.1-0.4-0.3-0.7-0.6-0.9c-0.2-0.2-0.5-0.4-0.9-0.5c-0.3-0.1-0.8-0.1-1.6-0.1H36.2z M36.2,40.1"/>
	<path class="st0" d="M44,48.1v-9.7h6.6v1.6H46v2.3h4V44h-4v4.1H44z M44,48.1"/>
</g>
</svg>
