<?xml version="1.0" encoding="utf-8"?>
<!-- Generator: Adobe Illustrator 27.6.1, SVG Export Plug-In . SVG Version: 6.00 Build 0)  -->
<svg version="1.1" id="레이어_1" xmlns="http://www.w3.org/2000/svg" xmlns:xlink="http://www.w3.org/1999/xlink" x="0px"
	 y="0px" viewBox="0 0 150 150" style="enable-background:new 0 0 150 150;" xml:space="preserve">
<style type="text/css">
	.st0{fill:#FFFFFF;}
</style>
<g>
	<path class="st0" d="M55,135.2h-6.5c-5.5,0-10-4.5-10-10V24.8c0-5.5,4.5-10,10-10H55c5.5,0,10,4.5,10,10v100.4
		C65,130.7,60.5,135.2,55,135.2z"/>
	<path class="st0" d="M101.5,135.2H95c-5.5,0-10-4.5-10-10V24.8c0-5.5,4.5-10,10-10h6.5c5.5,0,10,4.5,10,10v100.4
		C111.5,130.7,107,135.2,101.5,135.2z"/>
</g>
</svg>
