<?xml version="1.0" encoding="UTF-8"?>
<svg id="Layer_1" data-name="Layer 1" xmlns="http://www.w3.org/2000/svg" version="1.1" viewBox="0 0 512 512">
  <defs>
    <style>
      .cls-1 {
        fill: #fff;
        stroke-width: 0px;
      }
    </style>
  </defs>
  <path class="cls-1" d="M216.8,435.1h-31.8c-9.8,0-17.8,8-17.8,17.8s8,17.8,17.8,17.8h31.8c9.8,0,17.8-8,17.8-17.8s-8-17.8-17.8-17.8ZM216.8,456.6h-31.8c-2,0-3.8-1.7-3.8-3.8s1.7-3.8,3.8-3.8h31.8c2,0,3.8,1.7,3.8,3.8s-1.7,3.8-3.8,3.8ZM167.3,316.2c-.9,0-1.8-.2-2.7-.5-35.4-14.7-58.2-49-58.2-87.4s42.4-94.6,94.6-94.6,46.9,9,64.4,25.3c17.5,16.3,28.1,38.3,29.9,62,.3,3.9-2.6,7.2-6.4,7.5-3.8.3-7.2-2.6-7.5-6.4-3.2-41.7-38.5-74.4-80.4-74.4s-80.6,36.2-80.6,80.6,19.5,61.9,49.6,74.4c3.6,1.5,5.3,5.6,3.8,9.2-1.1,2.7-3.7,4.3-6.5,4.3h0ZM259.7,221c.5,3.8-2.3,7.3-6.1,7.8-3.8.5-7.3-2.3-7.8-6.1-2.8-22.6-22.1-39.6-44.9-39.6s-45.2,20.3-45.2,45.2,6.5,27.4,17.9,36.1c3.1,2.3,3.7,6.7,1.4,9.8-1.4,1.8-3.5,2.8-5.6,2.8s-3-.5-4.2-1.4c-14.9-11.3-23.5-28.5-23.5-47.2,0-32.6,26.6-59.2,59.2-59.2s55.1,22.3,58.7,51.9h0ZM455.2,410.2l-13.3-23c-2-3.4-5.2-5.9-9-6.9-2-.5-4-.6-6-.3-1.3-19-7.8-39-14.3-50.3l-49-84.9c-3.2-5.5-8.4-9.5-14.6-11.2-.7-.2-1.4-.3-2.1-.5V45.3c0-22.8-18.5-41.3-41.3-41.3H96.2c-22.8,0-41.3,18.5-41.3,41.3v421.4c0,22.8,18.5,41.3,41.3,41.3h209.5c10,0,19.5-3.6,27.1-10.2.6-.2,1.2-.5,1.7-.9s115.3-66.5,115.3-66.5c3.4-2,5.9-5.2,6.9-9,1-3.8.5-7.8-1.5-11.2h0ZM351.5,251.8l49,84.9c6.4,11.2,12.6,32.3,12.6,50l-102,58.9c-6.8-7-15.3-11.7-25.4-13.9l-22.7-4.9c-10.6-2.3-18.7-8.2-24.1-17.6l-35.1-60.9c-4.2-7.3-1.7-16.7,5.6-20.9,3.5-2,7.6-2.6,11.6-1.5,4,1.1,7.3,3.6,9.3,7.1,0,0,0,0,0,0l19.2,33.2c1.3,2.2,3.6,3.5,6.1,3.5s2.4-.3,3.5-.9c3.3-1.9,4.5-6.2,2.6-9.6l-19.1-33.2s0,0,0,0l-52.7-91.3c-1.7-3-2.2-6.5-1.3-9.9.9-3.4,3-6.2,6-7.9,3-1.7,6.5-2.2,9.9-1.3,3.4.9,6.2,3,7.9,6l41.9,72.5c1.9,3.3,6.2,4.5,9.6,2.6,3.3-1.9,4.5-6.2,2.6-9.6h0c-1.5-2.6-1.9-5.6-1.1-8.6.8-2.9,2.6-5.4,5.2-6.9,2.6-1.5,5.6-1.9,8.6-1.1,2.9.8,5.4,2.6,6.9,5.2l3,5.2s0,0,0,0c1.9,3.3,6.2,4.5,9.6,2.6,3.3-1.9,4.5-6.2,2.6-9.6q-1.3-2.2,0,0h0c-2.9-5-1.2-11.5,3.9-14.4,2.4-1.4,5.3-1.8,8-1,2.7.7,5,2.5,6.4,4.9l3,5.1c1.9,3.3,6.2,4.5,9.6,2.6,3.3-1.9,4.5-6.2,2.6-9.6-1.3-2.3-1.7-5-1-7.6s2.3-4.8,4.6-6.1c2.3-1.3,5-1.7,7.6-1,2.6.7,4.7,2.3,6.1,4.6h0ZM270,18l-7,12.1c-1.5,2.6-3.9,4-7,4h-110.3c-3,0-5.4-1.4-7-4l-7-12.1h138.2ZM96.2,494c-15.1,0-27.3-12.3-27.3-27.3V45.3c0-15.1,12.3-27.3,27.3-27.3h19.5l11,19.1c4,6.9,11.1,11,19.1,11h110.3c8,0,15.1-4.1,19.1-11l11-19.1h19.5c15.1,0,27.3,12.3,27.3,27.3v189.6c-.7.3-1.4.7-2.1,1.1-4.4,2.6-7.9,6.4-9.9,11-1.5-.7-3-1.3-4.6-1.7-6.3-1.7-13-.8-18.6,2.4-4.7,2.7-8.2,6.8-10.2,11.5-1.6-.8-3.2-1.4-5-1.9-6.5-1.8-13.4-.9-19.2,2.5-3.4,2-6.3,4.7-8.4,7.9l-30.6-52.9c-3.6-6.2-9.4-10.7-16.4-12.6-7-1.9-14.3-.9-20.5,2.7-6.2,3.6-10.7,9.4-12.6,16.4s-.9,14.3,2.7,20.5l40.2,69.7c-5.4-.2-10.7,1.2-15.4,3.9-14,8.1-18.8,26-10.7,40l35.1,60.9c7.4,12.7,18.9,21.1,33.2,24.2l22.7,4.9c7,1.5,13,4.7,17.7,9.3-2,4.3-2,9.4.5,13.8l13.3,23c.2.3.3.6.5.9-2.9,1-6,1.6-9.1,1.6H96.2ZM443.1,417.8c0,.2-.1.4-.4.5l-115.3,66.5c-.4.2-.9,0-1.1-.3l-13.3-23c-.2-.4,0-.9.3-1.1l115.3-66.5c.1,0,.3-.1.4-.1s.2,0,.2,0c.1,0,.4.1.5.4l13.3,23c.1.2.1.5,0,.6h0Z"/>
</svg>