<?xml version="1.0" encoding="utf-8"?>
<!-- Generator: Adobe Illustrator 27.6.1, SVG Export Plug-In . SVG Version: 6.00 Build 0)  -->
<svg version="1.1" id="레이어_1" xmlns="http://www.w3.org/2000/svg" xmlns:xlink="http://www.w3.org/1999/xlink" x="0px"
	 y="0px" viewBox="0 0 50 50" style="enable-background:new 0 0 50 50;" xml:space="preserve">
<style type="text/css">
	.st0{fill:#333333;}
</style>
<g>
	<path class="st0" d="M17.7,37.5L17.7,37.5c-1.6,0-3-0.7-4.2-1.9c-3-3.1-1.8-6.9-0.5-8.3l12.3-12.8c1.2-1.2,3.1-2,5.1-2c0,0,0,0,0,0
		c1.5,0,3.7,0.4,5.6,2.5c3.6,3.7,2.5,9,0.5,11.1l-9.1,9.5c-0.3,0.3-0.8,0.3-1.2,0c-0.3-0.3-0.3-0.8,0-1.2l9.1-9.5
		c1.4-1.5,2.5-5.7-0.5-8.8c-1.5-1.6-3.3-1.9-4.4-1.9c0,0,0,0,0,0c-1.5,0-3,0.6-3.9,1.5L14.2,28.5c-0.4,0.5-2.1,3.3,0.5,6
		c0.9,0.9,1.9,1.4,3,1.4l0,0c1.2,0,2.2-0.6,2.6-1l11.8-12.4c0.6-0.6,1-2.5,0-3.6c-0.5-0.5-1.1-0.6-1.6-0.6l0,0
		c-0.8,0-1.5,0.3-1.7,0.6l-8.6,9l-1.2-1.2l8.6-9c0.7-0.7,1.8-1.2,3-1.2l0,0c1.1,0,2.1,0.4,2.8,1.2c1.7,1.8,1.2,4.7,0,5.9L21.5,36.1
		C20.8,36.8,19.4,37.5,17.7,37.5z"/>
</g>
</svg>
